<?xml version="1.0" encoding="iso-8859-1"?>
<!DOCTYPE svg PUBLIC "-//W3C//DTD SVG 20000303 Stylable//EN" "http://www.w3.org/2000/svg10-20000303-stylable">
<svg width="696" height="371" viewBox="-1 48 696 371">
<marker id="decorator_0"/>
<marker id="decorator_1" viewBox="-20 -10 20 20"
                   markerUnits="userSpaceOnUse" refX="0" refY="0"
                   markerWidth="10" markerHeight="10" orient="auto"
                   style="fill:none;stroke:black;stroke-width:2">
<path d="M-20,-10 L0,0 -20,10"/>
</marker>
<marker id="decorator_5" viewBox="-20 -10 20 20"
                   markerUnits="userSpaceOnUse" refX="0" refY="0"
                   markerWidth="10" markerHeight="10" orient="auto"
                   style="fill:white;stroke:black;stroke-width:2">
<path d="M-20,-10 L0,0 -20,10 z"/>
</marker>
<rect x="4" y="355" width="100" height="59" fill ="#DBD5D5" stroke="black" stroke-width="1"/>
<rect x="4" y="355" width="100" height="29" fill ="#DBD5D5" stroke="black" stroke-width="1"/>
<text  font-size="11" x="9" y="367" style="font-style:italic">
OCL
</text>
<text  font-size="11" x="9" y="380">
(from Root::OCL)
</text>
<rect x="4" y="383" width="100" height="16" fill ="#DBD5D5" stroke="black" stroke-width="1"/>
<rect x="4" y="398" width="100" height="16" fill ="#DBD5D5" stroke="black" stroke-width="1"/>
<polyline points="345,142.5 298.0,123 204,123 204,162 298.0,162 345,142.5" fill ="#DBD5D5" stroke="black" stroke-width="1"/>
<text  font-size="11" x="239" y="150">
TranslateClass
</text>
<polyline points="325,383.5 281.33334,364 194,364 194,403 281.33334,403 325,383.5" fill ="#DBD5D5" stroke="black" stroke-width="1"/>
<text  font-size="11" x="227" y="391">
TranslateOCL
</text>
<rect x="5" y="120" width="102" height="59" fill ="#DBD5D5" stroke="black" stroke-width="1"/>
<rect x="5" y="120" width="102" height="29" fill ="#DBD5D5" stroke="black" stroke-width="1"/>
<text  font-size="11" x="10" y="132">
Class
</text>
<text  font-size="11" x="10" y="145">
(from Root::XCore)
</text>
<rect x="5" y="148" width="102" height="16" fill ="#DBD5D5" stroke="black" stroke-width="1"/>
<rect x="5" y="163" width="102" height="16" fill ="#DBD5D5" stroke="black" stroke-width="1"/>
<rect x="449" y="201" width="234" height="59" fill ="#DBD5D5" stroke="black" stroke-width="1"/>
<rect x="449" y="201" width="234" height="29" fill ="#DBD5D5" stroke="black" stroke-width="1"/>
<text  font-size="11" x="454" y="213">
Field
</text>
<text  font-size="11" x="454" y="226">
(from Root::Languages::MicroJava::Structure)
</text>
<rect x="449" y="229" width="234" height="16" fill ="#DBD5D5" stroke="black" stroke-width="1"/>
<rect x="449" y="244" width="234" height="16" fill ="#DBD5D5" stroke="black" stroke-width="1"/>
<rect x="456" y="131" width="234" height="59" fill ="#DBD5D5" stroke="black" stroke-width="1"/>
<rect x="456" y="131" width="234" height="29" fill ="#DBD5D5" stroke="black" stroke-width="1"/>
<text  font-size="11" x="461" y="143">
Class
</text>
<text  font-size="11" x="461" y="156">
(from Root::Languages::MicroJava::Structure)
</text>
<rect x="456" y="159" width="234" height="16" fill ="#DBD5D5" stroke="black" stroke-width="1"/>
<rect x="456" y="174" width="234" height="16" fill ="#DBD5D5" stroke="black" stroke-width="1"/>
<rect x="5" y="189" width="102" height="59" fill ="#DBD5D5" stroke="black" stroke-width="1"/>
<rect x="5" y="189" width="102" height="29" fill ="#DBD5D5" stroke="black" stroke-width="1"/>
<text  font-size="11" x="10" y="201">
Attribute
</text>
<text  font-size="11" x="10" y="214">
(from Root::XCore)
</text>
<rect x="5" y="217" width="102" height="16" fill ="#DBD5D5" stroke="black" stroke-width="1"/>
<rect x="5" y="232" width="102" height="16" fill ="#DBD5D5" stroke="black" stroke-width="1"/>
<polyline points="375,301.5 311.33334,282 184,282 184,321 311.33334,321 375,301.5" fill ="#DBD5D5" stroke="black" stroke-width="1"/>
<text  font-size="11" x="232" y="309">
TranslateConstraint
</text>
<polyline points="370,224.5 311.0,205 193,205 193,244 311.0,244 370,224.5" fill ="#DBD5D5" stroke="black" stroke-width="1"/>
<text  font-size="11" x="237" y="232">
TranslateAttribute
</text>
<rect x="4" y="275" width="102" height="59" fill ="#DBD5D5" stroke="black" stroke-width="1"/>
<rect x="4" y="275" width="102" height="29" fill ="#DBD5D5" stroke="black" stroke-width="1"/>
<text  font-size="11" x="9" y="287">
Constraint
</text>
<text  font-size="11" x="9" y="300">
(from Root::XCore)
</text>
<rect x="4" y="303" width="102" height="16" fill ="#DBD5D5" stroke="black" stroke-width="1"/>
<rect x="4" y="318" width="102" height="16" fill ="#DBD5D5" stroke="black" stroke-width="1"/>
<rect x="455" y="54" width="234" height="59" fill ="#DBD5D5" stroke="black" stroke-width="1"/>
<rect x="455" y="54" width="234" height="29" fill ="#DBD5D5" stroke="black" stroke-width="1"/>
<text  font-size="11" x="460" y="66">
Package
</text>
<text  font-size="11" x="460" y="79">
(from Root::Languages::MicroJava::Structure)
</text>
<rect x="455" y="82" width="234" height="16" fill ="#DBD5D5" stroke="black" stroke-width="1"/>
<rect x="455" y="97" width="234" height="16" fill ="#DBD5D5" stroke="black" stroke-width="1"/>
<rect x="449" y="285" width="234" height="59" fill ="#DBD5D5" stroke="black" stroke-width="1"/>
<rect x="449" y="285" width="234" height="29" fill ="#DBD5D5" stroke="black" stroke-width="1"/>
<text  font-size="11" x="454" y="297">
Method
</text>
<text  font-size="11" x="454" y="310">
(from Root::Languages::MicroJava::Structure)
</text>
<rect x="449" y="313" width="234" height="16" fill ="#DBD5D5" stroke="black" stroke-width="1"/>
<rect x="449" y="328" width="234" height="16" fill ="#DBD5D5" stroke="black" stroke-width="1"/>
<rect x="6" y="53" width="102" height="59" fill ="#DBD5D5" stroke="black" stroke-width="1"/>
<rect x="6" y="53" width="102" height="29" fill ="#DBD5D5" stroke="black" stroke-width="1"/>
<text  font-size="11" x="11" y="65">
Package
</text>
<text  font-size="11" x="11" y="78">
(from Root::XCore)
</text>
<rect x="6" y="81" width="102" height="16" fill ="#DBD5D5" stroke="black" stroke-width="1"/>
<rect x="6" y="96" width="102" height="16" fill ="#DBD5D5" stroke="black" stroke-width="1"/>
<polyline points="373,77.5 316.0,58 202,58 202,97 316.0,97 373,77.5" fill ="#DBD5D5" stroke="black" stroke-width="1"/>
<text  font-size="11" x="245" y="85">
TranslatePackage
</text>
<line x1="194" y1="383" x2="104" y2="383" stroke="black" stroke-width="1" style="stroke-dasharray:15 5;" marker-start="url(#decorator_0)" marker-end="url(#decorator_1)" />
<text  font-size="11" x="109" y="418">
domain
</text>
<line x1="204" y1="142" x2="107" y2="142" stroke="black" stroke-width="1" style="stroke-dasharray:15 5;" marker-start="url(#decorator_0)" marker-end="url(#decorator_1)" />
<text  font-size="11" x="112" y="177">
domain
</text>
<line x1="371" y1="220" x2="449" y2="220" stroke="black" stroke-width="1" style="stroke-dasharray:15 5;" marker-start="url(#decorator_0)" marker-end="url(#decorator_1)" />
<text  font-size="11" x="416" y="245">
range
</text>
<line x1="346" y1="144" x2="456" y2="144" stroke="black" stroke-width="1" style="stroke-dasharray:15 5;" marker-start="url(#decorator_0)" marker-end="url(#decorator_1)" />
<text  font-size="11" x="417" y="167">
range
</text>
<line x1="193" y1="218" x2="107" y2="218" stroke="black" stroke-width="1" style="stroke-dasharray:15 5;" marker-start="url(#decorator_0)" marker-end="url(#decorator_1)" />
<text  font-size="11" x="112" y="253">
domain
</text>
<line x1="184" y1="302" x2="106" y2="302" stroke="black" stroke-width="1" style="stroke-dasharray:15 5;" marker-start="url(#decorator_0)" marker-end="url(#decorator_1)" />
<text  font-size="11" x="111" y="337">
domain
</text>
<line x1="374" y1="78" x2="455" y2="78" stroke="black" stroke-width="1" style="stroke-dasharray:15 5;" marker-start="url(#decorator_0)" marker-end="url(#decorator_1)" />
<text  font-size="11" x="419" y="103">
range
</text>
<line x1="376" y1="303" x2="449" y2="303" stroke="black" stroke-width="1" style="stroke-dasharray:15 5;" marker-start="url(#decorator_0)" marker-end="url(#decorator_1)" />
<text  font-size="11" x="414" y="331">
range
</text>
<line x1="202" y1="78" x2="108" y2="78" stroke="black" stroke-width="1" style="stroke-dasharray:15 5;" marker-start="url(#decorator_0)" marker-end="url(#decorator_1)" />
<text  font-size="11" x="113" y="113">
domain
</text>
</svg>
