<?xml version="1.0" encoding="iso-8859-1"?>
<!DOCTYPE svg PUBLIC "-//W3C//DTD SVG 20000303 Stylable//EN" "http://www.w3.org/2000/svg10-20000303-stylable">
<svg width="240" height="236" viewBox="200 94 240 236">
<marker id="decorator_0"/>
<marker id="decorator_1" viewBox="-20 -10 20 20"
                   markerUnits="userSpaceOnUse" refX="0" refY="0"
                   markerWidth="10" markerHeight="10" orient="auto"
                   style="fill:none;stroke:black;stroke-width:2">
<path d="M-20,-10 L0,0 -20,10"/>
</marker>
<marker id="decorator_5" viewBox="-20 -10 20 20"
                   markerUnits="userSpaceOnUse" refX="0" refY="0"
                   markerWidth="10" markerHeight="10" orient="auto"
                   style="fill:white;stroke:black;stroke-width:2">
<path d="M-20,-10 L0,0 -20,10 z"/>
</marker>
<rect x="311" y="274" width="100" height="51" fill ="#DBD5D5" stroke="black" stroke-width="1"/>
<rect x="311" y="274" width="100" height="21" fill ="#DBD5D5" stroke="black" stroke-width="1"/>
<text  font-size="11" x="316" y="286">
BigThing
</text>
<rect x="311" y="294" width="100" height="16" fill ="#DBD5D5" stroke="black" stroke-width="1"/>
<rect x="311" y="309" width="100" height="16" fill ="#DBD5D5" stroke="black" stroke-width="1"/>
<rect x="231" y="99" width="140" height="56" fill ="#DBD5D5" stroke="black" stroke-width="1"/>
<rect x="231" y="99" width="140" height="21" fill ="#DBD5D5" stroke="black" stroke-width="1"/>
<text  font-size="11" x="236" y="111" style="font-style:italic">
Thing
</text>
<rect x="231" y="119" width="140" height="21" fill ="#DBD5D5" stroke="black" stroke-width="1"/>
<text  font-size="11" x="331" y="131">
String
</text>
<text  font-size="11" x="236" y="131">
nameOfThing
</text>
<rect x="231" y="139" width="140" height="16" fill ="#DBD5D5" stroke="black" stroke-width="1"/>
<rect x="205" y="203" width="100" height="51" fill ="#DBD5D5" stroke="black" stroke-width="1"/>
<rect x="205" y="203" width="100" height="21" fill ="#DBD5D5" stroke="black" stroke-width="1"/>
<text  font-size="11" x="210" y="215">
LittleThing
</text>
<rect x="205" y="223" width="100" height="16" fill ="#DBD5D5" stroke="black" stroke-width="1"/>
<rect x="205" y="238" width="100" height="16" fill ="#DBD5D5" stroke="black" stroke-width="1"/>
<line x1="411" y1="296" x2="435" y2="296" stroke="black" stroke-width="1" style="stroke-dasharray:0;" marker-start="url(#decorator_0)" marker-end="url(#decorator_0)" />
<line x1="435" y1="296" x2="435" y2="126" stroke="black" stroke-width="1" style="stroke-dasharray:0;" marker-start="url(#decorator_0)" marker-end="url(#decorator_0)" />
<line x1="435" y1="126" x2="371" y2="126" stroke="black" stroke-width="1" style="stroke-dasharray:0;" marker-start="url(#decorator_0)" marker-end="url(#decorator_1)" />
<text  font-size="11" x="395" y="150">
*
</text>
<text  font-size="11" x="394" y="110">
things
</text>
<line x1="268" y1="203" x2="268" y2="155" stroke="black" stroke-width="1" style="stroke-dasharray:0;" marker-start="url(#decorator_0)" marker-end="url(#decorator_5)" />
<line x1="341" y1="274" x2="341" y2="155" stroke="black" stroke-width="1" style="stroke-dasharray:0;" marker-start="url(#decorator_0)" marker-end="url(#decorator_5)" />
</svg>
