<?xml version="1.0" encoding="iso-8859-1"?>
<!DOCTYPE svg PUBLIC "-//W3C//DTD SVG 20000303 Stylable//EN" "http://www.w3.org/2000/svg10-20000303-stylable">
<svg width="289" height="281" viewBox="143 104 289 281">
<marker id="decorator_0"/>
<marker id="decorator_1" viewBox="-20 -10 20 20"
                   markerUnits="userSpaceOnUse" refX="0" refY="0"
                   markerWidth="10" markerHeight="10" orient="auto"
                   style="fill:none;stroke:black;stroke-width:2">
<path d="M-20,-10 L0,0 -20,10"/>
</marker>
<marker id="decorator_5" viewBox="-20 -10 20 20"
                   markerUnits="userSpaceOnUse" refX="0" refY="0"
                   markerWidth="10" markerHeight="10" orient="auto"
                   style="fill:white;stroke:black;stroke-width:2">
<path d="M-20,-10 L0,0 -20,10 z"/>
</marker>
<rect x="289" y="316" width="40" height="16" fill ="#DBD5D5" stroke="black" stroke-width="1"/>
<rect x="289" y="326" width="80" height="48" fill ="#DBD5D5" stroke="black" stroke-width="1"/>
<text  font-size="11" x="294" y="354">
XSync
</text>
<text  font-size="11" x="294" y="338">
  
</text>
<rect x="269" y="109" width="40" height="16" fill ="#DBD5D5" stroke="black" stroke-width="1"/>
<rect x="269" y="119" width="80" height="48" fill ="#DBD5D5" stroke="black" stroke-width="1"/>
<text  font-size="11" x="274" y="147">
XCore
</text>
<text  font-size="11" x="274" y="131">
  
</text>
<rect x="347" y="204" width="40" height="16" fill ="#DBD5D5" stroke="black" stroke-width="1"/>
<rect x="347" y="214" width="80" height="48" fill ="#DBD5D5" stroke="black" stroke-width="1"/>
<text  font-size="11" x="352" y="242">
XBNF
</text>
<text  font-size="11" x="352" y="226">
  
</text>
<rect x="148" y="315" width="40" height="16" fill ="#DBD5D5" stroke="black" stroke-width="1"/>
<rect x="148" y="325" width="80" height="48" fill ="#DBD5D5" stroke="black" stroke-width="1"/>
<text  font-size="11" x="153" y="353">
XMap
</text>
<text  font-size="11" x="153" y="337">
  
</text>
<rect x="213" y="205" width="40" height="16" fill ="#DBD5D5" stroke="black" stroke-width="1"/>
<rect x="213" y="215" width="80" height="48" fill ="#DBD5D5" stroke="black" stroke-width="1"/>
<text  font-size="11" x="218" y="243">
XOCL
</text>
<text  font-size="11" x="218" y="227">
  
</text>
<line x1="348" y1="204" x2="348" y2="173" stroke="black" stroke-width="1" style="stroke-dasharray:0;" marker-start="url(#decorator_0)" marker-end="url(#decorator_5)" />
<line x1="221" y1="315" x2="221" y2="269" stroke="black" stroke-width="1" style="stroke-dasharray:0;" marker-start="url(#decorator_0)" marker-end="url(#decorator_5)" />
<line x1="281" y1="205" x2="281" y2="173" stroke="black" stroke-width="1" style="stroke-dasharray:0;" marker-start="url(#decorator_0)" marker-end="url(#decorator_5)" />
<line x1="291" y1="316" x2="291" y2="269" stroke="black" stroke-width="1" style="stroke-dasharray:0;" marker-start="url(#decorator_0)" marker-end="url(#decorator_5)" />
</svg>
