<?xml version="1.0" encoding="iso-8859-1"?>
<!DOCTYPE svg PUBLIC "-//W3C//DTD SVG 20000303 Stylable//EN" "http://www.w3.org/2000/svg10-20000303-stylable">
<svg width="339" height="259" viewBox="117 97 339 259">
<marker id="decorator_0"/>
<marker id="decorator_1" viewBox="-20 -10 20 20"
                   markerUnits="userSpaceOnUse" refX="0" refY="0"
                   markerWidth="10" markerHeight="10" orient="auto"
                   style="fill:none;stroke:black;stroke-width:2">
<path d="M-20,-10 L0,0 -20,10"/>
</marker>
<marker id="decorator_5" viewBox="-20 -10 20 20"
                   markerUnits="userSpaceOnUse" refX="0" refY="0"
                   markerWidth="10" markerHeight="10" orient="auto"
                   style="fill:white;stroke:black;stroke-width:2">
<path d="M-20,-10 L0,0 -20,10 z"/>
</marker>
<rect x="349" y="201" width="102" height="62" fill ="#DBD5D5" stroke="black" stroke-width="1"/>
<rect x="349" y="201" width="102" height="16" fill ="#DBD5D5" stroke="black" stroke-width="1"/>
<text  font-size="11" x="354" y="213">
Transition
</text>
<rect x="349" y="216" width="102" height="32" fill ="#DBD5D5" stroke="black" stroke-width="1"/>
<text  font-size="11" x="419" y="228">
String
</text>
<text  font-size="11" x="354" y="228">
sourceName
</text>
<text  font-size="11" x="419" y="244">
String
</text>
<text  font-size="11" x="354" y="244">
targetName
</text>
<rect x="349" y="247" width="102" height="16" fill ="#DBD5D5" stroke="black" stroke-width="1"/>
<rect x="164" y="102" width="100" height="46" fill ="#DBD5D5" stroke="black" stroke-width="1"/>
<rect x="164" y="102" width="100" height="16" fill ="#DBD5D5" stroke="black" stroke-width="1"/>
<text  font-size="11" x="169" y="114" style="font-style:italic">
Named
</text>
<rect x="164" y="117" width="100" height="16" fill ="#DBD5D5" stroke="black" stroke-width="1"/>
<text  font-size="11" x="201" y="129">
String
</text>
<text  font-size="11" x="169" y="129">
name
</text>
<rect x="164" y="132" width="100" height="16" fill ="#DBD5D5" stroke="black" stroke-width="1"/>
<rect x="169" y="305" width="100" height="46" fill ="#DBD5D5" stroke="black" stroke-width="1"/>
<rect x="169" y="305" width="100" height="16" fill ="#DBD5D5" stroke="black" stroke-width="1"/>
<text  font-size="11" x="174" y="317">
State
</text>
<rect x="169" y="320" width="100" height="16" fill ="#DBD5D5" stroke="black" stroke-width="1"/>
<rect x="169" y="335" width="100" height="16" fill ="#DBD5D5" stroke="black" stroke-width="1"/>
<rect x="168" y="203" width="100" height="46" fill ="#DBD5D5" stroke="black" stroke-width="1"/>
<rect x="168" y="203" width="100" height="16" fill ="#DBD5D5" stroke="black" stroke-width="1"/>
<text  font-size="11" x="173" y="215">
StateMachine
</text>
<rect x="168" y="218" width="100" height="16" fill ="#DBD5D5" stroke="black" stroke-width="1"/>
<text  font-size="11" x="229" y="230">
String
</text>
<text  font-size="11" x="173" y="230">
startName
</text>
<rect x="168" y="233" width="100" height="16" fill ="#DBD5D5" stroke="black" stroke-width="1"/>
<line x1="169" y1="329" x2="122" y2="329" stroke="black" stroke-width="1" style="stroke-dasharray:0;" marker-start="url(#decorator_0)" marker-end="url(#decorator_0)" />
<line x1="122" y1="329" x2="122" y2="125" stroke="black" stroke-width="1" style="stroke-dasharray:0;" marker-start="url(#decorator_0)" marker-end="url(#decorator_0)" />
<line x1="122" y1="125" x2="164" y2="125" stroke="black" stroke-width="1" style="stroke-dasharray:0;" marker-start="url(#decorator_0)" marker-end="url(#decorator_5)" />
<line x1="217" y1="203" x2="217" y2="148" stroke="black" stroke-width="1" style="stroke-dasharray:0;" marker-start="url(#decorator_0)" marker-end="url(#decorator_5)" />
<line x1="268" y1="226" x2="349" y2="226" stroke="black" stroke-width="1" style="stroke-dasharray:0;" marker-start="url(#decorator_0)" marker-end="url(#decorator_1)" />
<text  font-size="11" x="329" y="219">
*
</text>
<text  font-size="11" x="293" y="247">
transitions
</text>
<line x1="219" y1="249" x2="219" y2="305" stroke="black" stroke-width="1" style="stroke-dasharray:0;" marker-start="url(#decorator_0)" marker-end="url(#decorator_1)" />
<text  font-size="11" x="194" y="298">
*
</text>
<text  font-size="11" x="239" y="297">
states
</text>
</svg>
