<?xml version="1.0" encoding="iso-8859-1"?>
<!DOCTYPE svg PUBLIC "-//W3C//DTD SVG 20000303 Stylable//EN" "http://www.w3.org/2000/svg10-20000303-stylable">
<svg width="738" height="233" viewBox="15 77 738 233">
<marker id="decorator_0"/>
<marker id="decorator_1" viewBox="-20 -10 20 20"
                   markerUnits="userSpaceOnUse" refX="0" refY="0"
                   markerWidth="10" markerHeight="10" orient="auto"
                   style="fill:none;stroke:black;stroke-width:2">
<path d="M-20,-10 L0,0 -20,10"/>
</marker>
<marker id="decorator_5" viewBox="-20 -10 20 20"
                   markerUnits="userSpaceOnUse" refX="0" refY="0"
                   markerWidth="10" markerHeight="10" orient="auto"
                   style="fill:white;stroke:black;stroke-width:2">
<path d="M-20,-10 L0,0 -20,10 z"/>
</marker>
<polyline points="466,118.5 425.0,99 343,99 343,138 425.0,138 466,118.5" fill ="#DBD5D5" stroke="black" stroke-width="1"/>
<text  font-size="11" x="374" y="126">
SM2Class
</text>
<rect x="21" y="232" width="191" height="69" fill ="#DBD5D5" stroke="black" stroke-width="1"/>
<rect x="21" y="232" width="191" height="39" fill ="#DBD5D5" stroke="black" stroke-width="1"/>
<text  font-size="11" x="26" y="244">
Transition
</text>
<text  font-size="11" x="26" y="262">
(from Root::StateMachines)
</text>
<rect x="21" y="270" width="191" height="16" fill ="#DBD5D5" stroke="black" stroke-width="1"/>
<rect x="21" y="285" width="191" height="16" fill ="#DBD5D5" stroke="black" stroke-width="1"/>
<rect x="620" y="85" width="122" height="69" fill ="#DBD5D5" stroke="black" stroke-width="1"/>
<rect x="620" y="85" width="122" height="39" fill ="#DBD5D5" stroke="black" stroke-width="1"/>
<text  font-size="11" x="625" y="97">
CPPClass
</text>
<text  font-size="11" x="625" y="115">
(from Root::CPP)
</text>
<rect x="620" y="123" width="122" height="16" fill ="#DBD5D5" stroke="black" stroke-width="1"/>
<rect x="620" y="138" width="122" height="16" fill ="#DBD5D5" stroke="black" stroke-width="1"/>
<rect x="626" y="236" width="122" height="69" fill ="#DBD5D5" stroke="black" stroke-width="1"/>
<rect x="626" y="236" width="122" height="39" fill ="#DBD5D5" stroke="black" stroke-width="1"/>
<text  font-size="11" x="631" y="248">
CPPOp
</text>
<text  font-size="11" x="631" y="266">
(from Root::CPP)
</text>
<rect x="626" y="274" width="122" height="16" fill ="#DBD5D5" stroke="black" stroke-width="1"/>
<rect x="626" y="289" width="122" height="16" fill ="#DBD5D5" stroke="black" stroke-width="1"/>
<rect x="20" y="82" width="191" height="69" fill ="#DBD5D5" stroke="black" stroke-width="1"/>
<rect x="20" y="82" width="191" height="39" fill ="#DBD5D5" stroke="black" stroke-width="1"/>
<text  font-size="11" x="25" y="94">
StateMachine
</text>
<text  font-size="11" x="25" y="112">
(from Root::StateMachines)
</text>
<rect x="20" y="120" width="191" height="16" fill ="#DBD5D5" stroke="black" stroke-width="1"/>
<rect x="20" y="135" width="191" height="16" fill ="#DBD5D5" stroke="black" stroke-width="1"/>
<polyline points="501,269.5 440.66666,250 320,250 320,289 440.66666,289 501,269.5" fill ="#DBD5D5" stroke="black" stroke-width="1"/>
<text  font-size="11" x="365" y="277">
Transition2Op
</text>
<line x1="467" y1="119" x2="620" y2="119" stroke="black" stroke-width="1" style="stroke-dasharray:15 5;" marker-start="url(#decorator_0)" marker-end="url(#decorator_1)" />
<text  font-size="11" x="573" y="100">
range
</text>
<line x1="320" y1="270" x2="212" y2="270" stroke="black" stroke-width="1" style="stroke-dasharray:15 5;" marker-start="url(#decorator_0)" marker-end="url(#decorator_1)" />
<text  font-size="11" x="228" y="253">
domain
</text>
<line x1="343" y1="119" x2="211" y2="119" stroke="black" stroke-width="1" style="stroke-dasharray:15 5;" marker-start="url(#decorator_0)" marker-end="url(#decorator_1)" />
<text  font-size="11" x="225" y="105">
domain
</text>
<line x1="502" y1="269" x2="626" y2="269" stroke="black" stroke-width="1" style="stroke-dasharray:15 5;" marker-start="url(#decorator_0)" marker-end="url(#decorator_1)" />
<text  font-size="11" x="578" y="258">
range
</text>
</svg>
