<?xml version="1.0" encoding="iso-8859-1"?>
<!DOCTYPE svg PUBLIC "-//W3C//DTD SVG 20000303 Stylable//EN" "http://www.w3.org/2000/svg10-20000303-stylable">
<svg width="411" height="310" viewBox="21 91 411 310">
<marker id="decorator_0"/>
<marker id="decorator_1" viewBox="-20 -10 20 20"
                   markerUnits="userSpaceOnUse" refX="0" refY="0"
                   markerWidth="10" markerHeight="10" orient="auto"
                   style="fill:none;stroke:black;stroke-width:2">
<path d="M-20,-10 L0,0 -20,10"/>
</marker>
<marker id="decorator_5" viewBox="-20 -10 20 20"
                   markerUnits="userSpaceOnUse" refX="0" refY="0"
                   markerWidth="10" markerHeight="10" orient="auto"
                   style="fill:white;stroke:black;stroke-width:2">
<path d="M-20,-10 L0,0 -20,10 z"/>
</marker>
<rect x="155" y="96" width="85" height="39" fill ="#DBD5D5" stroke="black" stroke-width="1"/>
<text  font-size="11" x="170" y="113">

</text>
<text  font-size="11" x="170" y="128">
:StateMachine
</text>
<rect x="127" y="357" width="67" height="39" fill ="#DBD5D5" stroke="black" stroke-width="1"/>
<text  font-size="11" x="142" y="374">

</text>
<text  font-size="11" x="142" y="389">
:Transition
</text>
<rect x="40" y="188" width="135" height="39" fill ="#DBD5D5" stroke="black" stroke-width="1"/>
<text  font-size="11" x="40" y="200">

</text>
<text  font-size="11" x="55" y="216">
:Set(&lt;&lt;Class Transition&gt;&gt;)
</text>
<rect x="45" y="346" width="67" height="39" fill ="#DBD5D5" stroke="black" stroke-width="1"/>
<text  font-size="11" x="60" y="363">

</text>
<text  font-size="11" x="60" y="378">
:Transition
</text>
<rect x="262" y="164" width="114" height="39" fill ="#DBD5D5" stroke="black" stroke-width="1"/>
<text  font-size="11" x="262" y="176">

</text>
<text  font-size="11" x="277" y="192">
:Set(&lt;&lt;Class State&gt;&gt;)
</text>
<rect x="381" y="255" width="46" height="39" fill ="#DBD5D5" stroke="black" stroke-width="1"/>
<text  font-size="11" x="396" y="272">

</text>
<text  font-size="11" x="396" y="287">
:State
</text>
<rect x="26" y="288" width="67" height="39" fill ="#DBD5D5" stroke="black" stroke-width="1"/>
<text  font-size="11" x="41" y="305">

</text>
<text  font-size="11" x="41" y="320">
:Transition
</text>
<rect x="280" y="256" width="46" height="39" fill ="#DBD5D5" stroke="black" stroke-width="1"/>
<text  font-size="11" x="295" y="273">

</text>
<text  font-size="11" x="295" y="288">
:State
</text>
<line x1="165" y1="135" x2="165" y2="188" stroke="black" stroke-width="1" style="stroke-dasharray:0;" marker-start="url(#decorator_0)" marker-end="url(#decorator_1)" />
<text  font-size="11" x="96" y="181">
transitions
</text>
<line x1="135" y1="227" x2="135" y2="357" stroke="black" stroke-width="1" style="stroke-dasharray:0;" marker-start="url(#decorator_0)" marker-end="url(#decorator_1)" />
<text  font-size="11" x="140" y="392">

</text>
<line x1="240" y1="135" x2="262" y2="164" stroke="black" stroke-width="1" style="stroke-dasharray:0;" marker-start="url(#decorator_0)" marker-end="url(#decorator_1)" />
<text  font-size="11" x="273" y="151">
states
</text>
<line x1="102" y1="227" x2="102" y2="346" stroke="black" stroke-width="1" style="stroke-dasharray:0;" marker-start="url(#decorator_0)" marker-end="url(#decorator_1)" />
<text  font-size="11" x="107" y="381">

</text>
<line x1="67" y1="227" x2="67" y2="288" stroke="black" stroke-width="1" style="stroke-dasharray:0;" marker-start="url(#decorator_0)" marker-end="url(#decorator_1)" />
<text  font-size="11" x="72" y="323">

</text>
<line x1="376" y1="203" x2="381" y2="255" stroke="black" stroke-width="1" style="stroke-dasharray:0;" marker-start="url(#decorator_0)" marker-end="url(#decorator_1)" />
<text  font-size="11" x="386" y="290">

</text>
<line x1="303" y1="203" x2="303" y2="256" stroke="black" stroke-width="1" style="stroke-dasharray:0;" marker-start="url(#decorator_0)" marker-end="url(#decorator_1)" />
<text  font-size="11" x="308" y="291">

</text>
</svg>
