<?xml version="1.0" encoding="iso-8859-1"?>
<!DOCTYPE svg PUBLIC "-//W3C//DTD SVG 20000303 Stylable//EN" "http://www.w3.org/2000/svg10-20000303-stylable">
<svg width="407" height="229" viewBox="52 84 407 229">
<marker id="decorator_0"/>
<marker id="decorator_1" viewBox="-20 -10 20 20"
                   markerUnits="userSpaceOnUse" refX="0" refY="0"
                   markerWidth="10" markerHeight="10" orient="auto"
                   style="fill:none;stroke:black;stroke-width:2">
<path d="M-20,-10 L0,0 -20,10"/>
</marker>
<marker id="decorator_5" viewBox="-20 -10 20 20"
                   markerUnits="userSpaceOnUse" refX="0" refY="0"
                   markerWidth="10" markerHeight="10" orient="auto"
                   style="fill:white;stroke:black;stroke-width:2">
<path d="M-20,-10 L0,0 -20,10 z"/>
</marker>
<rect x="354" y="252" width="100" height="46" fill ="#DBD5D5" stroke="black" stroke-width="1"/>
<rect x="354" y="252" width="100" height="16" fill ="#DBD5D5" stroke="black" stroke-width="1"/>
<text x="359" y="264">
Connector
</text>
<rect x="354" y="267" width="100" height="16" fill ="#DBD5D5" stroke="black" stroke-width="1"/>
<rect x="354" y="282" width="100" height="16" fill ="#DBD5D5" stroke="black" stroke-width="1"/>
<rect x="88" y="89" width="102" height="59" fill ="#DBD5D5" stroke="black" stroke-width="1"/>
<rect x="88" y="89" width="102" height="29" fill ="#DBD5D5" stroke="black" stroke-width="1"/>
<text x="93" y="101">
Class
</text>
<text x="93" y="114">
(from Root::XCore)
</text>
<rect x="88" y="117" width="102" height="16" fill ="#DBD5D5" stroke="black" stroke-width="1"/>
<rect x="88" y="132" width="102" height="16" fill ="#DBD5D5" stroke="black" stroke-width="1"/>
<rect x="260" y="191" width="104" height="46" fill ="#DBD5D5" stroke="black" stroke-width="1"/>
<rect x="260" y="191" width="104" height="16" fill ="#DBD5D5" stroke="black" stroke-width="1"/>
<text x="265" y="203">
InterfaceConnector
</text>
<rect x="260" y="206" width="104" height="16" fill ="#DBD5D5" stroke="black" stroke-width="1"/>
<rect x="260" y="221" width="104" height="16" fill ="#DBD5D5" stroke="black" stroke-width="1"/>
<rect x="310" y="89" width="102" height="59" fill ="#DBD5D5" stroke="black" stroke-width="1"/>
<rect x="310" y="89" width="102" height="29" fill ="#DBD5D5" stroke="black" stroke-width="1"/>
<text x="315" y="101">
Attribute
</text>
<text x="315" y="114">
(from Root::XCore)
</text>
<rect x="310" y="117" width="102" height="16" fill ="#DBD5D5" stroke="black" stroke-width="1"/>
<rect x="310" y="132" width="102" height="16" fill ="#DBD5D5" stroke="black" stroke-width="1"/>
<rect x="141" y="262" width="100" height="46" fill ="#DBD5D5" stroke="black" stroke-width="1"/>
<rect x="141" y="262" width="100" height="16" fill ="#DBD5D5" stroke="black" stroke-width="1"/>
<text x="146" y="274">
Component
</text>
<rect x="141" y="277" width="100" height="16" fill ="#DBD5D5" stroke="black" stroke-width="1"/>
<rect x="141" y="292" width="100" height="16" fill ="#DBD5D5" stroke="black" stroke-width="1"/>
<rect x="57" y="193" width="100" height="46" fill ="#DBD5D5" stroke="black" stroke-width="1"/>
<rect x="57" y="193" width="100" height="16" fill ="#DBD5D5" stroke="black" stroke-width="1"/>
<text x="62" y="205">
Interface
</text>
<rect x="57" y="208" width="100" height="16" fill ="#DBD5D5" stroke="black" stroke-width="1"/>
<rect x="57" y="223" width="100" height="16" fill ="#DBD5D5" stroke="black" stroke-width="1"/>
<line x1="383" y1="252" x2="383" y2="148" stroke="black" stroke-width="1" style="stroke-dasharray:0;" marker-start="url(#decorator_0)" marker-end="url(#decorator_5)" />
<line x1="123" y1="193" x2="123" y2="148" stroke="black" stroke-width="1" style="stroke-dasharray:0;" marker-start="url(#decorator_0)" marker-end="url(#decorator_5)" />
<line x1="337" y1="191" x2="337" y2="148" stroke="black" stroke-width="1" style="stroke-dasharray:0;" marker-start="url(#decorator_0)" marker-end="url(#decorator_5)" />
<line x1="166" y1="262" x2="166" y2="148" stroke="black" stroke-width="1" style="stroke-dasharray:0;" marker-start="url(#decorator_0)" marker-end="url(#decorator_5)" />
</svg>
