<?xml version="1.0" encoding="iso-8859-1"?>
<!DOCTYPE svg PUBLIC "-//W3C//DTD SVG 20000303 Stylable//EN" "http://www.w3.org/2000/svg10-20000303-stylable">
<svg width="314" height="173" viewBox="108 106 314 173">
<marker id="decorator_0"/>
<marker id="decorator_1" viewBox="-20 -10 20 20"
                   markerUnits="userSpaceOnUse" refX="0" refY="0"
                   markerWidth="10" markerHeight="10" orient="auto"
                   style="fill:none;stroke:black;stroke-width:2">
<path d="M-20,-10 L0,0 -20,10"/>
</marker>
<marker id="decorator_5" viewBox="-20 -10 20 20"
                   markerUnits="userSpaceOnUse" refX="0" refY="0"
                   markerWidth="10" markerHeight="10" orient="auto"
                   style="fill:white;stroke:black;stroke-width:2">
<path d="M-20,-10 L0,0 -20,10 z"/>
</marker>
<rect x="222" y="210" width="40" height="16" fill ="#DBD5D5" stroke="black" stroke-width="1"/>
<rect x="222" y="220" width="89" height="48" fill ="#DBD5D5" stroke="black" stroke-width="1"/>
<text  font-size="11" x="227" y="248">
SemanticMapping
</text>
<text  font-size="11" x="227" y="232">
  
</text>
<rect x="113" y="111" width="40" height="16" fill ="#DBD5D5" stroke="black" stroke-width="1"/>
<rect x="113" y="121" width="81" height="48" fill ="#DBD5D5" stroke="black" stroke-width="1"/>
<text  font-size="11" x="118" y="149">
AbstractSyntax
</text>
<text  font-size="11" x="118" y="133">
  
</text>
<rect x="333" y="113" width="40" height="16" fill ="#DBD5D5" stroke="black" stroke-width="1"/>
<rect x="333" y="123" width="84" height="48" fill ="#DBD5D5" stroke="black" stroke-width="1"/>
<text  font-size="11" x="338" y="151">
SemanticDomain
</text>
<text  font-size="11" x="338" y="135">
  
</text>
<line x1="311" y1="210" x2="333" y2="177" stroke="black" stroke-width="1" style="stroke-dasharray:0;" marker-start="url(#decorator_0)" marker-end="url(#decorator_1)" />
<text  font-size="11" x="345" y="202">
imports
</text>
<line x1="222" y1="210" x2="194" y2="175" stroke="black" stroke-width="1" style="stroke-dasharray:0;" marker-start="url(#decorator_0)" marker-end="url(#decorator_1)" />
<text  font-size="11" x="154" y="204">
imports
</text>
</svg>
