<?xml version="1.0" encoding="iso-8859-1"?>
<!DOCTYPE svg PUBLIC "-//W3C//DTD SVG 20000303 Stylable//EN" "http://www.w3.org/2000/svg10-20000303-stylable">
<svg width="416" height="70" viewBox="110 249 416 70">
<marker id="decorator_0"/>
<marker id="decorator_1" viewBox="-20 -10 20 20"
                   markerUnits="userSpaceOnUse" refX="0" refY="0"
                   markerWidth="10" markerHeight="10" orient="auto"
                   style="fill:none;stroke:black;stroke-width:2">
<path d="M-20,-10 L0,0 -20,10"/>
</marker>
<marker id="decorator_5" viewBox="-20 -10 20 20"
                   markerUnits="userSpaceOnUse" refX="0" refY="0"
                   markerWidth="10" markerHeight="10" orient="auto"
                   style="fill:white;stroke:black;stroke-width:2">
<path d="M-20,-10 L0,0 -20,10 z"/>
</marker>
<rect x="115" y="255" width="100" height="59" fill ="#DBD5D5" stroke="black" stroke-width="1"/>
<rect x="115" y="255" width="100" height="29" fill ="#DBD5D5" stroke="black" stroke-width="1"/>
<text  font-size="11" x="120" y="267">
Display
</text>
<text  font-size="11" x="120" y="280">
&lt;&lt;Interface&gt;&gt;
</text>
<rect x="115" y="283" width="100" height="16" fill ="#DBD5D5" stroke="black" stroke-width="1"/>
<rect x="115" y="298" width="100" height="16" fill ="#DBD5D5" stroke="black" stroke-width="1"/>
<rect x="421" y="254" width="100" height="59" fill ="#DBD5D5" stroke="black" stroke-width="1"/>
<rect x="421" y="254" width="100" height="29" fill ="#DBD5D5" stroke="black" stroke-width="1"/>
<text  font-size="11" x="426" y="266">
Render
</text>
<text  font-size="11" x="426" y="279">
&lt;&lt;Interface&gt;&gt;
</text>
<rect x="421" y="282" width="100" height="16" fill ="#DBD5D5" stroke="black" stroke-width="1"/>
<rect x="421" y="297" width="100" height="16" fill ="#DBD5D5" stroke="black" stroke-width="1"/>
<line x1="215" y1="282" x2="421" y2="282" stroke="black" stroke-width="1" style="stroke-dasharray:0;" marker-start="url(#decorator_0)" marker-end="url(#decorator_1)" />
<text  font-size="11" x="426" y="301">

</text>
<text  font-size="11" x="280" y="302">
&lt;&lt;Connector&gt;&gt;
</text>
<text  font-size="11" x="386" y="271">
render
</text>
</svg>
