<?xml version="1.0" encoding="iso-8859-1"?>
<!DOCTYPE svg PUBLIC "-//W3C//DTD SVG 20000303 Stylable//EN" "http://www.w3.org/2000/svg10-20000303-stylable">
<svg width="494" height="262" viewBox="8 327 494 262">
<marker id="decorator_0"/>
<marker id="decorator_1" viewBox="-20 -10 20 20"
                   markerUnits="userSpaceOnUse" refX="0" refY="0"
                   markerWidth="10" markerHeight="10" orient="auto"
                   style="fill:none;stroke:black;stroke-width:2">
<path d="M-20,-10 L0,0 -20,10"/>
</marker>
<marker id="decorator_5" viewBox="-20 -10 20 20"
                   markerUnits="userSpaceOnUse" refX="0" refY="0"
                   markerWidth="10" markerHeight="10" orient="auto"
                   style="fill:white;stroke:black;stroke-width:2">
<path d="M-20,-10 L0,0 -20,10 z"/>
</marker>
<rect x="13" y="332" width="131" height="44" fill ="#DBD5D5" stroke="black" stroke-width="1"/>
<rect x="13" y="332" width="131" height="29" fill ="#DBD5D5" stroke="black" stroke-width="1"/>
<text  font-size="11" x="18" y="344">
Name
</text>
<text  font-size="11" x="18" y="357">
(from Root::Parser::BNF)
</text>
<rect x="13" y="360" width="131" height="16" fill ="#DBD5D5" stroke="black" stroke-width="1"/>
<rect x="199" y="545" width="100" height="31" fill ="#DBD5D5" stroke="black" stroke-width="1"/>
<rect x="199" y="545" width="100" height="16" fill ="#DBD5D5" stroke="black" stroke-width="1"/>
<text  font-size="11" x="204" y="557">
Class
</text>
<rect x="199" y="560" width="100" height="16" fill ="#DBD5D5" stroke="black" stroke-width="1"/>
<rect x="208" y="332" width="100" height="31" fill ="#DBD5D5" stroke="black" stroke-width="1"/>
<rect x="208" y="332" width="100" height="16" fill ="#DBD5D5" stroke="black" stroke-width="1"/>
<text  font-size="11" x="213" y="344">
Aspect
</text>
<rect x="208" y="347" width="100" height="16" fill ="#DBD5D5" stroke="black" stroke-width="1"/>
<rect x="395" y="534" width="102" height="44" fill ="#DBD5D5" stroke="black" stroke-width="1"/>
<rect x="395" y="534" width="102" height="29" fill ="#DBD5D5" stroke="black" stroke-width="1"/>
<text  font-size="11" x="400" y="546" style="font-style:italic">
Performable
</text>
<text  font-size="11" x="400" y="559">
(from Root::XCore)
</text>
<rect x="395" y="562" width="102" height="16" fill ="#DBD5D5" stroke="black" stroke-width="1"/>
<rect x="208" y="448" width="100" height="31" fill ="#DBD5D5" stroke="black" stroke-width="1"/>
<rect x="208" y="448" width="100" height="16" fill ="#DBD5D5" stroke="black" stroke-width="1"/>
<text  font-size="11" x="213" y="460" style="font-style:italic">
ComponentDef
</text>
<rect x="208" y="463" width="100" height="16" fill ="#DBD5D5" stroke="black" stroke-width="1"/>
<rect x="25" y="540" width="100" height="44" fill ="#DBD5D5" stroke="black" stroke-width="1"/>
<rect x="25" y="540" width="100" height="29" fill ="#DBD5D5" stroke="black" stroke-width="1"/>
<text  font-size="11" x="30" y="552">
Path
</text>
<text  font-size="11" x="30" y="565">
(from Root::OCL)
</text>
<rect x="25" y="568" width="100" height="16" fill ="#DBD5D5" stroke="black" stroke-width="1"/>
<line x1="255" y1="545" x2="255" y2="501" stroke="black" stroke-width="1" style="stroke-dasharray:0;" marker-start="url(#decorator_0)" marker-end="url(#decorator_0)" />
<line x1="255" y1="501" x2="255" y2="479" stroke="black" stroke-width="1" style="stroke-dasharray:0;" marker-start="url(#decorator_0)" marker-end="url(#decorator_5)" />
<line x1="208" y1="348" x2="144" y2="348" stroke="black" stroke-width="1" style="stroke-dasharray:0;" marker-start="url(#decorator_0)" marker-end="url(#decorator_1)" />
<text  font-size="11" x="149" y="367">

</text>
<text  font-size="11" x="158" y="372">
name
</text>
<line x1="299" y1="557" x2="395" y2="557" stroke="black" stroke-width="1" style="stroke-dasharray:0;" marker-start="url(#decorator_0)" marker-end="url(#decorator_1)" />
<text  font-size="11" x="322" y="574">
&lt;&lt;ordered&gt;&gt;
</text>
<text  font-size="11" x="345" y="553">
elements
</text>
<line x1="258" y1="363" x2="258" y2="448" stroke="black" stroke-width="1" style="stroke-dasharray:0;" marker-start="url(#decorator_0)" marker-end="url(#decorator_1)" />
<text  font-size="11" x="274" y="440">
&lt;&lt;ordered&gt;&gt;
</text>
<text  font-size="11" x="180" y="439">
components
</text>
<line x1="199" y1="561" x2="125" y2="561" stroke="black" stroke-width="1" style="stroke-dasharray:0;" marker-start="url(#decorator_0)" marker-end="url(#decorator_1)" />
<text  font-size="11" x="130" y="580">

</text>
<text  font-size="11" x="140" y="553">
path
</text>
</svg>
