<?xml version="1.0" encoding="iso-8859-1"?>
<!DOCTYPE svg PUBLIC "-//W3C//DTD SVG 20000303 Stylable//EN" "http://www.w3.org/2000/svg10-20000303-stylable">
<svg width="447" height="295" viewBox="-6 48 447 295">
<marker id="decorator_0"/>
<marker id="decorator_1" viewBox="-20 -10 20 20"
                   markerUnits="userSpaceOnUse" refX="0" refY="0"
                   markerWidth="10" markerHeight="10" orient="auto"
                   style="fill:none;stroke:black;stroke-width:2">
<path d="M-20,-10 L0,0 -20,10"/>
</marker>
<marker id="decorator_5" viewBox="-20 -10 20 20"
                   markerUnits="userSpaceOnUse" refX="0" refY="0"
                   markerWidth="10" markerHeight="10" orient="auto"
                   style="fill:white;stroke:black;stroke-width:2">
<path d="M-20,-10 L0,0 -20,10 z"/>
</marker>
<rect x="-1" y="179" width="101" height="59" fill ="#DBD5D5" stroke="black" stroke-width="1"/>
<rect x="-1" y="179" width="101" height="29" fill ="#DBD5D5" stroke="black" stroke-width="1"/>
<text  font-size="11" x="4" y="191" style="font-style:italic">
NamedElement
</text>
<text  font-size="11" x="4" y="204">
(from Root::XCore)
</text>
<rect x="-1" y="207" width="101" height="16" fill ="#DBD5D5" stroke="black" stroke-width="1"/>
<rect x="-1" y="222" width="101" height="16" fill ="#DBD5D5" stroke="black" stroke-width="1"/>
<rect x="135" y="292" width="100" height="46" fill ="#DBD5D5" stroke="black" stroke-width="1"/>
<rect x="135" y="292" width="100" height="16" fill ="#DBD5D5" stroke="black" stroke-width="1"/>
<text  font-size="11" x="140" y="304">
State
</text>
<rect x="135" y="307" width="100" height="16" fill ="#DBD5D5" stroke="black" stroke-width="1"/>
<rect x="135" y="322" width="100" height="16" fill ="#DBD5D5" stroke="black" stroke-width="1"/>
<rect x="126" y="53" width="101" height="59" fill ="#DBD5D5" stroke="black" stroke-width="1"/>
<rect x="126" y="53" width="101" height="29" fill ="#DBD5D5" stroke="black" stroke-width="1"/>
<text  font-size="11" x="131" y="65">
Class
</text>
<text  font-size="11" x="131" y="78">
(from Root::XCore)
</text>
<rect x="126" y="81" width="101" height="16" fill ="#DBD5D5" stroke="black" stroke-width="1"/>
<rect x="126" y="96" width="101" height="16" fill ="#DBD5D5" stroke="black" stroke-width="1"/>
<rect x="333" y="54" width="101" height="59" fill ="#DBD5D5" stroke="black" stroke-width="1"/>
<rect x="333" y="54" width="101" height="29" fill ="#DBD5D5" stroke="black" stroke-width="1"/>
<text  font-size="11" x="338" y="66" style="font-style:italic">
Contained
</text>
<text  font-size="11" x="338" y="79">
(from Root::XCore)
</text>
<rect x="333" y="82" width="101" height="16" fill ="#DBD5D5" stroke="black" stroke-width="1"/>
<rect x="333" y="97" width="101" height="16" fill ="#DBD5D5" stroke="black" stroke-width="1"/>
<rect x="131" y="184" width="100" height="46" fill ="#DBD5D5" stroke="black" stroke-width="1"/>
<rect x="131" y="184" width="100" height="16" fill ="#DBD5D5" stroke="black" stroke-width="1"/>
<text  font-size="11" x="136" y="196">
StateMachine
</text>
<rect x="131" y="199" width="100" height="16" fill ="#DBD5D5" stroke="black" stroke-width="1"/>
<rect x="131" y="214" width="100" height="16" fill ="#DBD5D5" stroke="black" stroke-width="1"/>
<rect x="336" y="184" width="100" height="46" fill ="#DBD5D5" stroke="black" stroke-width="1"/>
<rect x="336" y="184" width="100" height="16" fill ="#DBD5D5" stroke="black" stroke-width="1"/>
<text  font-size="11" x="341" y="196">
Transition
</text>
<rect x="336" y="199" width="100" height="16" fill ="#DBD5D5" stroke="black" stroke-width="1"/>
<rect x="336" y="214" width="100" height="16" fill ="#DBD5D5" stroke="black" stroke-width="1"/>
<line x1="361" y1="230" x2="361" y2="300" stroke="black" stroke-width="1" style="stroke-dasharray:0;" marker-start="url(#decorator_0)" marker-end="url(#decorator_0)" />
<line x1="361" y1="300" x2="235" y2="300" stroke="black" stroke-width="1" style="stroke-dasharray:0;" marker-start="url(#decorator_0)" marker-end="url(#decorator_1)" />
<text  font-size="11" x="240" y="319">

</text>
<text  font-size="11" x="256" y="296">
source
</text>
<line x1="183" y1="230" x2="183" y2="292" stroke="black" stroke-width="1" style="stroke-dasharray:0;" marker-start="url(#decorator_0)" marker-end="url(#decorator_1)" />
<text  font-size="11" x="199" y="288">
*
</text>
<text  font-size="11" x="141" y="284">
states
</text>
<line x1="418" y1="230" x2="418" y2="323" stroke="black" stroke-width="1" style="stroke-dasharray:0;" marker-start="url(#decorator_0)" marker-end="url(#decorator_0)" />
<line x1="418" y1="323" x2="235" y2="323" stroke="black" stroke-width="1" style="stroke-dasharray:0;" marker-start="url(#decorator_0)" marker-end="url(#decorator_1)" />
<text  font-size="11" x="240" y="342">

</text>
<text  font-size="11" x="258" y="321">
target
</text>
<line x1="385" y1="184" x2="385" y2="113" stroke="black" stroke-width="1" style="stroke-dasharray:0;" marker-start="url(#decorator_0)" marker-end="url(#decorator_5)" />
<line x1="135" y1="315" x2="47" y2="315" stroke="black" stroke-width="1" style="stroke-dasharray:0;" marker-start="url(#decorator_0)" marker-end="url(#decorator_0)" />
<line x1="47" y1="315" x2="47" y2="238" stroke="black" stroke-width="1" style="stroke-dasharray:0;" marker-start="url(#decorator_0)" marker-end="url(#decorator_5)" />
<line x1="231" y1="208" x2="336" y2="208" stroke="black" stroke-width="1" style="stroke-dasharray:0;" marker-start="url(#decorator_0)" marker-end="url(#decorator_1)" />
<text  font-size="11" x="315" y="234">
*
</text>
<text  font-size="11" x="277" y="201">
transitions
</text>
<line x1="179" y1="184" x2="179" y2="112" stroke="black" stroke-width="1" style="stroke-dasharray:0;" marker-start="url(#decorator_0)" marker-end="url(#decorator_5)" />
</svg>
