<?xml version="1.0" encoding="iso-8859-1"?>
<!DOCTYPE svg PUBLIC "-//W3C//DTD SVG 20000303 Stylable//EN" "http://www.w3.org/2000/svg10-20000303-stylable">
<svg width="516" height="225" viewBox="55 81 516 225">
<marker id="decorator_0"/>
<marker id="decorator_1" viewBox="-20 -10 20 20"
                   markerUnits="userSpaceOnUse" refX="0" refY="0"
                   markerWidth="10" markerHeight="10" orient="auto"
                   style="fill:none;stroke:black;stroke-width:2">
<path d="M-20,-10 L0,0 -20,10"/>
</marker>
<marker id="decorator_5" viewBox="-20 -10 20 20"
                   markerUnits="userSpaceOnUse" refX="0" refY="0"
                   markerWidth="10" markerHeight="10" orient="auto"
                   style="fill:white;stroke:black;stroke-width:2">
<path d="M-20,-10 L0,0 -20,10 z"/>
</marker>
<rect x="436" y="178" width="130" height="39" fill ="#DBD5D5" stroke="black" stroke-width="1"/>
<text  font-size="11"  x="436" y="190">

</text>
<text  font-size="11"  x="451" y="206">
:Seq(&lt;Class Message&gt;)
</text>
<rect x="80" y="88" width="127" height="39" fill ="#DBD5D5" stroke="black" stroke-width="1"/>
<text  font-size="11"  x="95" y="105">

</text>
<text  font-size="11"  x="95" y="120">
:StateMachineInstance
</text>
<rect x="436" y="86" width="127" height="39" fill ="#DBD5D5" stroke="black" stroke-width="1"/>
<text  font-size="11" x="451" y="103">

</text>
<text  font-size="11" x="451" y="118">
:StateMachineInstance
</text>
<rect x="77" y="181" width="130" height="39" fill ="#DBD5D5" stroke="black" stroke-width="1"/>
<text  font-size="11" x="77" y="193">

</text>
<text  font-size="11" x="92" y="209">
:Seq(&lt;Class Message&gt;)
</text>
<rect x="277" y="88" width="83" height="39" fill ="#DBD5D5" stroke="black" stroke-width="1"/>
<text  font-size="11" x="292" y="105">

</text>
<text  font-size="11" x="292" y="120">
:StateChange
</text>
<rect x="60" y="256" width="62" height="39" fill ="#DBD5D5" stroke="black" stroke-width="1"/>
<text  font-size="11" x="75" y="273">

</text>
<text  font-size="11" x="75" y="288">
:Message
</text>
<rect x="169" y="262" width="62" height="39" fill ="#DBD5D5" stroke="black" stroke-width="1"/>
<text  font-size="11" x="184" y="279">

</text>
<text  font-size="11" x="184" y="294">
:Message
</text>
<line x1="436" y1="217" x2="231" y2="262" stroke="black" stroke-width="1" style="stroke-dasharray:0;" marker-start="url(#decorator_0)" marker-end="url(#decorator_1)" />
<text  font-size="11" x="236" y="297">

</text>
<line x1="143" y1="127" x2="143" y2="181" stroke="black" stroke-width="1" style="stroke-dasharray:0;" marker-start="url(#decorator_0)" marker-end="url(#decorator_1)" />
<text  font-size="11" x="161" y="174">
messages
</text>
<line x1="505" y1="125" x2="505" y2="178" stroke="black" stroke-width="1" style="stroke-dasharray:0;" marker-start="url(#decorator_0)" marker-end="url(#decorator_1)" />
<text  font-size="11" x="445" y="169">
messages
</text>
<line x1="100" y1="220" x2="100" y2="256" stroke="black" stroke-width="1" style="stroke-dasharray:0;" marker-start="url(#decorator_0)" marker-end="url(#decorator_1)" />
<text  font-size="11" x="105" y="291">

</text>
<line x1="360" y1="105" x2="436" y2="105" stroke="black" stroke-width="1" style="stroke-dasharray:0;" marker-start="url(#decorator_0)" marker-end="url(#decorator_1)" />
<text  font-size="11" x="402" y="128">
after
</text>
<line x1="188" y1="220" x2="188" y2="262" stroke="black" stroke-width="1" style="stroke-dasharray:0;" marker-start="url(#decorator_0)" marker-end="url(#decorator_1)" />
<text  font-size="11" x="193" y="297">

</text>
<line x1="277" y1="108" x2="207" y2="108" stroke="black" stroke-width="1" style="stroke-dasharray:0;" marker-start="url(#decorator_0)" marker-end="url(#decorator_1)" />
<text  font-size="11" x="221" y="132">
before
</text>
</svg>
