<?xml version="1.0" encoding="iso-8859-1"?>
<!DOCTYPE svg PUBLIC "-//W3C//DTD SVG 20000303 Stylable//EN" "http://www.w3.org/2000/svg10-20000303-stylable">
<svg width="628" height="329" viewBox="12 80 628 329">
<marker id="decorator_0"/>
<marker id="decorator_1" viewBox="-20 -10 20 20"
                   markerUnits="userSpaceOnUse" refX="0" refY="0"
                   markerWidth="10" markerHeight="10" orient="auto"
                   style="fill:none;stroke:black;stroke-width:2">
<path d="M-20,-10 L0,0 -20,10"/>
</marker>
<marker id="decorator_5" viewBox="-20 -10 20 20"
                   markerUnits="userSpaceOnUse" refX="0" refY="0"
                   markerWidth="10" markerHeight="10" orient="auto"
                   style="fill:white;stroke:black;stroke-width:2">
<path d="M-20,-10 L0,0 -20,10 z"/>
</marker>
<rect x="534" y="219" width="101" height="59" fill ="#DBD5D5" stroke="black" stroke-width="1"/>
<rect x="534" y="219" width="101" height="29" fill ="#DBD5D5" stroke="black" stroke-width="1"/>
<text  font-size="11" x="539" y="231">
Operation
</text>
<text  font-size="11" x="539" y="244">
(from Root::XCore)
</text>
<rect x="534" y="247" width="101" height="16" fill ="#DBD5D5" stroke="black" stroke-width="1"/>
<rect x="534" y="262" width="101" height="16" fill ="#DBD5D5" stroke="black" stroke-width="1"/>
<rect x="17" y="96" width="100" height="51" fill ="#DBD5D5" stroke="black" stroke-width="1"/>
<rect x="17" y="96" width="100" height="21" fill ="#DBD5D5" stroke="black" stroke-width="1"/>
<text  font-size="11" x="22" y="108">
State
</text>
<rect x="17" y="116" width="100" height="16" fill ="#DBD5D5" stroke="black" stroke-width="1"/>
<rect x="17" y="131" width="100" height="16" fill ="#DBD5D5" stroke="black" stroke-width="1"/>
<rect x="531" y="85" width="101" height="59" fill ="#DBD5D5" stroke="black" stroke-width="1"/>
<rect x="531" y="85" width="101" height="29" fill ="#DBD5D5" stroke="black" stroke-width="1"/>
<text  font-size="11" x="536" y="97">
Class
</text>
<text  font-size="11" x="536" y="110">
(from Root::XCore)
</text>
<rect x="531" y="113" width="101" height="16" fill ="#DBD5D5" stroke="black" stroke-width="1"/>
<rect x="531" y="128" width="101" height="16" fill ="#DBD5D5" stroke="black" stroke-width="1"/>
<rect x="169" y="221" width="129" height="72" fill ="#DBD5D5" stroke="black" stroke-width="1"/>
<rect x="169" y="221" width="129" height="21" fill ="#DBD5D5" stroke="black" stroke-width="1"/>
<text  font-size="11" x="174" y="233">
Transition
</text>
<rect x="169" y="241" width="129" height="37" fill ="#DBD5D5" stroke="black" stroke-width="1"/>
<text  font-size="11" x="258" y="253">
String
</text>
<text  font-size="11" x="174" y="253">
targetName
</text>
<text  font-size="11" x="258" y="269">
String
</text>
<text  font-size="11" x="174" y="269">
sourceName
</text>
<rect x="169" y="277" width="129" height="16" fill ="#DBD5D5" stroke="black" stroke-width="1"/>
<polyline points="491,253.5 446.0,234 356,234 356,273 446.0,273 491,253.5" fill ="#DBD5D5" stroke="black" stroke-width="1"/>
<text  font-size="11" x="390" y="261">
Transition2Op
</text>
<rect x="184" y="95" width="100" height="51" fill ="#DBD5D5" stroke="black" stroke-width="1"/>
<rect x="184" y="95" width="100" height="21" fill ="#DBD5D5" stroke="black" stroke-width="1"/>
<text  font-size="11" x="189" y="107">
StateMachine
</text>
<rect x="184" y="115" width="100" height="16" fill ="#DBD5D5" stroke="black" stroke-width="1"/>
<rect x="184" y="130" width="100" height="16" fill ="#DBD5D5" stroke="black" stroke-width="1"/>
<polyline points="444,115.5 421.0,96 375,96 375,135 421.0,135 444,115.5" fill ="#DBD5D5" stroke="black" stroke-width="1"/>
<text  font-size="11" x="392" y="123">
SM2Class
</text>
<rect x="184" y="358" width="100" height="46" fill ="#DBD5D5" stroke="black" stroke-width="1"/>
<rect x="184" y="358" width="100" height="16" fill ="#DBD5D5" stroke="black" stroke-width="1"/>
<text  font-size="11" x="189" y="370">
Event
</text>
<rect x="184" y="373" width="100" height="16" fill ="#DBD5D5" stroke="black" stroke-width="1"/>
<text  font-size="11" x="221" y="385">
String
</text>
<text  font-size="11" x="189" y="385">
name
</text>
<rect x="184" y="388" width="100" height="16" fill ="#DBD5D5" stroke="black" stroke-width="1"/>
<line x1="492" y1="254" x2="534" y2="254" stroke="black" stroke-width="1" style="stroke-dasharray:15 5;" marker-start="url(#decorator_0)" marker-end="url(#decorator_1)" />
<text  font-size="11" x="497" y="243">
range
</text>
<line x1="235" y1="146" x2="235" y2="221" stroke="black" stroke-width="1" style="stroke-dasharray:0;" marker-start="url(#decorator_0)" marker-end="url(#decorator_1)" />
<text  font-size="11" x="254" y="218">
*
</text>
<text  font-size="11" x="168" y="214">
transitions
</text>
<line x1="356" y1="254" x2="298" y2="254" stroke="black" stroke-width="1" style="stroke-dasharray:15 5;" marker-start="url(#decorator_0)" marker-end="url(#decorator_1)" />
<text  font-size="11" x="308" y="243">
domain
</text>
<line x1="184" y1="125" x2="117" y2="125" stroke="black" stroke-width="1" style="stroke-dasharray:0;" marker-start="url(#decorator_0)" marker-end="url(#decorator_1)" />
<text  font-size="11" x="128" y="148">
*
</text>
<text  font-size="11" x="127" y="119">
states
</text>
<line x1="445" y1="116" x2="531" y2="116" stroke="black" stroke-width="1" style="stroke-dasharray:15 5;" marker-start="url(#decorator_0)" marker-end="url(#decorator_1)" />
<text  font-size="11" x="491" y="106">
range
</text>
<line x1="234" y1="293" x2="234" y2="358" stroke="black" stroke-width="1" style="stroke-dasharray:0;" marker-start="url(#decorator_0)" marker-end="url(#decorator_1)" />
<text  font-size="11" x="239" y="377">

</text>
<text  font-size="11" x="192" y="350">
event
</text>
<line x1="375" y1="116" x2="284" y2="116" stroke="black" stroke-width="1" style="stroke-dasharray:15 5;" marker-start="url(#decorator_0)" marker-end="url(#decorator_1)" />
<text  font-size="11" x="296" y="103">
domain
</text>
</svg>
