<?xml version="1.0" encoding="iso-8859-1"?>
<!DOCTYPE svg PUBLIC "-//W3C//DTD SVG 20000303 Stylable//EN" "http://www.w3.org/2000/svg10-20000303-stylable">
<svg width="782" height="459" viewBox="35 10 782 459">
<marker id="decorator_0"/>
<marker id="decorator_1" viewBox="-20 -10 20 20"
                   markerUnits="userSpaceOnUse" refX="0" refY="0"
                   markerWidth="10" markerHeight="10" orient="auto"
                   style="fill:none;stroke:black;stroke-width:2">
<path d="M-20,-10 L0,0 -20,10"/>
</marker>
<marker id="decorator_5" viewBox="-20 -10 20 20"
                   markerUnits="userSpaceOnUse" refX="0" refY="0"
                   markerWidth="10" markerHeight="10" orient="auto"
                   style="fill:white;stroke:black;stroke-width:2">
<path d="M-20,-10 L0,0 -20,10 z"/>
</marker>
<rect x="40" y="262" width="100" height="56" fill ="#DBD5D5" stroke="black" stroke-width="1"/>
<rect x="40" y="262" width="100" height="21" fill ="#DBD5D5" stroke="black" stroke-width="1"/>
<text  font-size="11" x="45" y="274" style="font-style:italic">
Named
</text>
<rect x="40" y="282" width="100" height="21" fill ="#DBD5D5" stroke="black" stroke-width="1"/>
<text  font-size="11" x="88" y="294">
String
</text>
<text  font-size="11" x="45" y="294">
name
</text>
<rect x="40" y="302" width="100" height="16" fill ="#DBD5D5" stroke="black" stroke-width="1"/>
<rect x="477" y="413" width="100" height="51" fill ="#DBD5D5" stroke="black" stroke-width="1"/>
<rect x="477" y="413" width="100" height="21" fill ="#DBD5D5" stroke="black" stroke-width="1"/>
<text  font-size="11" x="482" y="425">
Action
</text>
<rect x="477" y="433" width="100" height="16" fill ="#DBD5D5" stroke="black" stroke-width="1"/>
<rect x="477" y="448" width="100" height="16" fill ="#DBD5D5" stroke="black" stroke-width="1"/>
<rect x="214" y="267" width="120" height="56" fill ="#DBD5D5" stroke="black" stroke-width="1"/>
<rect x="214" y="267" width="120" height="21" fill ="#DBD5D5" stroke="black" stroke-width="1"/>
<text  font-size="11" x="219" y="279">
StateMachine
</text>
<rect x="214" y="287" width="120" height="21" fill ="#DBD5D5" stroke="black" stroke-width="1"/>
<text  font-size="11" x="294" y="299">
String
</text>
<text  font-size="11" x="219" y="299">
startName
</text>
<rect x="214" y="307" width="120" height="16" fill ="#DBD5D5" stroke="black" stroke-width="1"/>
<rect x="712" y="263" width="100" height="51" fill ="#DBD5D5" stroke="black" stroke-width="1"/>
<rect x="712" y="263" width="100" height="21" fill ="#DBD5D5" stroke="black" stroke-width="1"/>
<text  font-size="11" x="717" y="275">
Guard
</text>
<rect x="712" y="283" width="100" height="16" fill ="#DBD5D5" stroke="black" stroke-width="1"/>
<rect x="712" y="298" width="100" height="16" fill ="#DBD5D5" stroke="black" stroke-width="1"/>
<rect x="462" y="255" width="129" height="72" fill ="#DBD5D5" stroke="black" stroke-width="1"/>
<rect x="462" y="255" width="129" height="21" fill ="#DBD5D5" stroke="black" stroke-width="1"/>
<text  font-size="11" x="467" y="267">
Transition
</text>
<rect x="462" y="275" width="129" height="37" fill ="#DBD5D5" stroke="black" stroke-width="1"/>
<text  font-size="11" x="551" y="287">
String
</text>
<text  font-size="11" x="467" y="287">
targetName
</text>
<text  font-size="11" x="551" y="303">
String
</text>
<text  font-size="11" x="467" y="303">
sourceName
</text>
<rect x="462" y="311" width="129" height="16" fill ="#DBD5D5" stroke="black" stroke-width="1"/>
<rect x="471" y="15" width="100" height="72" fill ="#DBD5D5" stroke="black" stroke-width="1"/>
<rect x="471" y="15" width="100" height="21" fill ="#DBD5D5" stroke="black" stroke-width="1"/>
<text  font-size="11" x="476" y="27">
EventArg
</text>
<rect x="471" y="35" width="100" height="37" fill ="#DBD5D5" stroke="black" stroke-width="1"/>
<text  font-size="11" x="519" y="47">
String
</text>
<text  font-size="11" x="476" y="47">
name
</text>
<text  font-size="11" x="519" y="63">
String
</text>
<text  font-size="11" x="476" y="63">
type
</text>
<rect x="471" y="71" width="100" height="16" fill ="#DBD5D5" stroke="black" stroke-width="1"/>
<rect x="218" y="413" width="100" height="51" fill ="#DBD5D5" stroke="black" stroke-width="1"/>
<rect x="218" y="413" width="100" height="21" fill ="#DBD5D5" stroke="black" stroke-width="1"/>
<text  font-size="11" x="223" y="425">
State
</text>
<rect x="218" y="433" width="100" height="16" fill ="#DBD5D5" stroke="black" stroke-width="1"/>
<rect x="218" y="448" width="100" height="16" fill ="#DBD5D5" stroke="black" stroke-width="1"/>
<rect x="471" y="141" width="100" height="56" fill ="#DBD5D5" stroke="black" stroke-width="1"/>
<rect x="471" y="141" width="100" height="21" fill ="#DBD5D5" stroke="black" stroke-width="1"/>
<text  font-size="11" x="476" y="153">
Event
</text>
<rect x="471" y="161" width="100" height="21" fill ="#DBD5D5" stroke="black" stroke-width="1"/>
<text  font-size="11" x="519" y="173">
String
</text>
<text  font-size="11" x="476" y="173">
name
</text>
<rect x="471" y="181" width="100" height="16" fill ="#DBD5D5" stroke="black" stroke-width="1"/>
<line x1="527" y1="327" x2="527" y2="413" stroke="black" stroke-width="1" style="stroke-dasharray:0;" marker-start="url(#decorator_0)" marker-end="url(#decorator_1)" />
<text  font-size="11" x="532" y="432">

</text>
<text  font-size="11" x="546" y="395">
action
</text>
<line x1="214" y1="289" x2="140" y2="289" stroke="black" stroke-width="1" style="stroke-dasharray:0;" marker-start="url(#decorator_0)" marker-end="url(#decorator_5)" />
<line x1="591" y1="289" x2="712" y2="289" stroke="black" stroke-width="1" style="stroke-dasharray:0;" marker-start="url(#decorator_0)" marker-end="url(#decorator_1)" />
<text  font-size="11" x="717" y="308">

</text>
<text  font-size="11" x="659" y="311">
guard
</text>
<line x1="334" y1="293" x2="462" y2="293" stroke="black" stroke-width="1" style="stroke-dasharray:0;" marker-start="url(#decorator_0)" marker-end="url(#decorator_1)" />
<text  font-size="11" x="435" y="320">
*
</text>
<text  font-size="11" x="379" y="277">
transitions
</text>
<line x1="318" y1="439" x2="477" y2="439" stroke="black" stroke-width="1" style="stroke-dasharray:0;" marker-start="url(#decorator_0)" marker-end="url(#decorator_1)" />
<text  font-size="11" x="482" y="458">

</text>
<text  font-size="11" x="423" y="423">
action
</text>
<line x1="266" y1="323" x2="266" y2="413" stroke="black" stroke-width="1" style="stroke-dasharray:0;" marker-start="url(#decorator_0)" marker-end="url(#decorator_1)" />
<text  font-size="11" x="240" y="398">
*
</text>
<text  font-size="11" x="287" y="396">
states
</text>
<line x1="522" y1="141" x2="522" y2="87" stroke="black" stroke-width="1" style="stroke-dasharray:0;" marker-start="url(#decorator_0)" marker-end="url(#decorator_1)" />
<text  font-size="11" x="416" y="106">
&lt;&lt;ordered&gt;&gt;
</text>
<text  font-size="11" x="541" y="106">
eventArg
</text>
<line x1="218" y1="439" x2="155" y2="439" stroke="black" stroke-width="1" style="stroke-dasharray:0;" marker-start="url(#decorator_0)" marker-end="url(#decorator_0)" />
<line x1="155" y1="439" x2="85" y2="438" stroke="black" stroke-width="1" style="stroke-dasharray:0;" marker-start="url(#decorator_0)" marker-end="url(#decorator_0)" />
<line x1="85" y1="438" x2="85" y2="318" stroke="black" stroke-width="1" style="stroke-dasharray:0;" marker-start="url(#decorator_0)" marker-end="url(#decorator_5)" />
<line x1="523" y1="255" x2="523" y2="197" stroke="black" stroke-width="1" style="stroke-dasharray:0;" marker-start="url(#decorator_0)" marker-end="url(#decorator_1)" />
<text  font-size="11" x="528" y="216">

</text>
<text  font-size="11" x="539" y="216">
event
</text>
</svg>
