<?xml version="1.0" encoding="iso-8859-1"?>
<!DOCTYPE svg PUBLIC "-//W3C//DTD SVG 20000303 Stylable//EN" "http://www.w3.org/2000/svg10-20000303-stylable">
<svg width="296" height="402" viewBox="98 15 296 402">
<marker id="decorator_0"/>
<marker id="decorator_1" viewBox="-20 -10 20 20"
                   markerUnits="userSpaceOnUse" refX="0" refY="0"
                   markerWidth="10" markerHeight="10" orient="auto"
                   style="fill:none;stroke:black;stroke-width:2">
<path d="M-20,-10 L0,0 -20,10"/>
</marker>
<marker id="decorator_5" viewBox="-20 -10 20 20"
                   markerUnits="userSpaceOnUse" refX="0" refY="0"
                   markerWidth="10" markerHeight="10" orient="auto"
                   style="fill:white;stroke:black;stroke-width:2">
<path d="M-20,-10 L0,0 -20,10 z"/>
</marker>
<rect x="260" y="344" width="40" height="16" fill ="#DBD5D5" stroke="black" stroke-width="1"/>
<rect x="260" y="354" width="129" height="48" fill ="#DBD5D5" stroke="black" stroke-width="1"/>
<text  font-size="11" x="265" y="382">
AsynchronousConnectors
</text>
<text  font-size="11" x="265" y="366">
  
</text>
<rect x="196" y="132" width="40" height="16" fill ="#DBD5D5" stroke="black" stroke-width="1"/>
<rect x="196" y="142" width="80" height="48" fill ="#DBD5D5" stroke="black" stroke-width="1"/>
<text  font-size="11" x="201" y="170">
Components
</text>
<text  font-size="11" x="201" y="154">
  
</text>
<rect x="103" y="348" width="40" height="16" fill ="#DBD5D5" stroke="black" stroke-width="1"/>
<rect x="103" y="358" width="123" height="48" fill ="#DBD5D5" stroke="black" stroke-width="1"/>
<text  font-size="11" x="108" y="386">
SynchronousConnectors
</text>
<text  font-size="11" x="108" y="370">
  
</text>
<rect x="195" y="20" width="40" height="16" fill ="#DBD5D5" stroke="black" stroke-width="1"/>
<rect x="195" y="30" width="80" height="48" fill ="#DBD5D5" stroke="black" stroke-width="1"/>
<text  font-size="11" x="200" y="58">
XCore
</text>
<text  font-size="11" x="200" y="42">
  
</text>
<rect x="193" y="241" width="40" height="16" fill ="#DBD5D5" stroke="black" stroke-width="1"/>
<rect x="193" y="251" width="80" height="48" fill ="#DBD5D5" stroke="black" stroke-width="1"/>
<text  font-size="11" x="198" y="279">
Connectors
</text>
<text  font-size="11" x="198" y="263">
  
</text>
<line x1="267" y1="344" x2="267" y2="305" stroke="black" stroke-width="1" style="stroke-dasharray:0;" marker-start="url(#decorator_0)" marker-end="url(#decorator_1)" />
<text  font-size="11" x="272" y="340">
imports
</text>
<line x1="236" y1="132" x2="236" y2="84" stroke="black" stroke-width="1" style="stroke-dasharray:0;" marker-start="url(#decorator_0)" marker-end="url(#decorator_1)" />
<text  font-size="11" x="241" y="119">
imports
</text>
<line x1="210" y1="348" x2="210" y2="305" stroke="black" stroke-width="1" style="stroke-dasharray:0;" marker-start="url(#decorator_0)" marker-end="url(#decorator_1)" />
<text  font-size="11" x="162" y="344">
imports
</text>
<line x1="235" y1="241" x2="235" y2="196" stroke="black" stroke-width="1" style="stroke-dasharray:0;" marker-start="url(#decorator_0)" marker-end="url(#decorator_1)" />
<text  font-size="11" x="240" y="231">
imports
</text>
</svg>
