<?xml version="1.0" encoding="iso-8859-1"?>
<!DOCTYPE svg PUBLIC "-//W3C//DTD SVG 20000303 Stylable//EN" "http://www.w3.org/2000/svg10-20000303-stylable">
<svg width="531" height="256" viewBox="190 173 531 256">
<marker id="decorator_0"/>
<marker id="decorator_1" viewBox="-20 -10 20 20"
                   markerUnits="userSpaceOnUse" refX="0" refY="0"
                   markerWidth="10" markerHeight="10" orient="auto"
                   style="fill:none;stroke:black;stroke-width:2">
<path d="M-20,-10 L0,0 -20,10"/>
</marker>
<marker id="decorator_5" viewBox="-20 -10 20 20"
                   markerUnits="userSpaceOnUse" refX="0" refY="0"
                   markerWidth="10" markerHeight="10" orient="auto"
                   style="fill:white;stroke:black;stroke-width:2">
<path d="M-20,-10 L0,0 -20,10 z"/>
</marker>
<rect x="195" y="178" width="102" height="44" fill ="#DBD5D5" stroke="black" stroke-width="1"/>
<rect x="195" y="178" width="102" height="29" fill ="#DBD5D5" stroke="black" stroke-width="1"/>
<text  font-size="11" x="200" y="190">
Container
</text>
<text  font-size="11" x="200" y="203">
(from Root::XCore)
</text>
<rect x="195" y="206" width="102" height="16" fill ="#DBD5D5" stroke="black" stroke-width="1"/>
<rect x="414" y="281" width="100" height="31" fill ="#DBD5D5" stroke="black" stroke-width="1"/>
<rect x="414" y="281" width="100" height="16" fill ="#DBD5D5" stroke="black" stroke-width="1"/>
<text  font-size="11" x="419" y="293">
Component
</text>
<rect x="414" y="296" width="100" height="16" fill ="#DBD5D5" stroke="black" stroke-width="1"/>
<rect x="203" y="281" width="100" height="31" fill ="#DBD5D5" stroke="black" stroke-width="1"/>
<rect x="203" y="281" width="100" height="16" fill ="#DBD5D5" stroke="black" stroke-width="1"/>
<text  font-size="11" x="208" y="293">
Aspect
</text>
<rect x="203" y="296" width="100" height="16" fill ="#DBD5D5" stroke="black" stroke-width="1"/>
<rect x="420" y="380" width="102" height="44" fill ="#DBD5D5" stroke="black" stroke-width="1"/>
<rect x="420" y="380" width="102" height="29" fill ="#DBD5D5" stroke="black" stroke-width="1"/>
<text  font-size="11" x="425" y="392" style="font-style:italic">
NamedElement
</text>
<text  font-size="11" x="425" y="405">
(from Root::XCore)
</text>
<rect x="420" y="408" width="102" height="16" fill ="#DBD5D5" stroke="black" stroke-width="1"/>
<text  font-size="11" x="457" y="420">
String
</text>
<text  font-size="11" x="425" y="420">
name
</text>
<rect x="614" y="276" width="102" height="44" fill ="#DBD5D5" stroke="black" stroke-width="1"/>
<rect x="614" y="276" width="102" height="29" fill ="#DBD5D5" stroke="black" stroke-width="1"/>
<text  font-size="11" x="619" y="288">
NameSpace
</text>
<text  font-size="11" x="619" y="301">
(from Root::XCore)
</text>
<rect x="614" y="304" width="102" height="16" fill ="#DBD5D5" stroke="black" stroke-width="1"/>
<line x1="303" y1="295" x2="414" y2="295" stroke="black" stroke-width="1" style="stroke-dasharray:0;" marker-start="url(#decorator_0)" marker-end="url(#decorator_1)" />
<text  font-size="11" x="395" y="290">
*
</text>
<text  font-size="11" x="345" y="319">
components
</text>
<line x1="464" y1="312" x2="464" y2="380" stroke="black" stroke-width="1" style="stroke-dasharray:0;" marker-start="url(#decorator_0)" marker-end="url(#decorator_1)" />
<text  font-size="11" x="484" y="383">
*
</text>
<text  font-size="11" x="411" y="376">
contents
</text>
<line x1="250" y1="281" x2="250" y2="225" stroke="black" stroke-width="1" style="stroke-dasharray:0;" marker-start="url(#decorator_0)" marker-end="url(#decorator_0)" />
<line x1="250" y1="225" x2="251" y2="225" stroke="black" stroke-width="1" style="stroke-dasharray:0;" marker-start="url(#decorator_0)" marker-end="url(#decorator_0)" />
<line x1="251" y1="225" x2="251" y2="222" stroke="black" stroke-width="1" style="stroke-dasharray:0;" marker-start="url(#decorator_0)" marker-end="url(#decorator_5)" />
<line x1="514" y1="298" x2="614" y2="298" stroke="black" stroke-width="1" style="stroke-dasharray:0;" marker-start="url(#decorator_0)" marker-end="url(#decorator_1)" />
<text  font-size="11" x="619" y="317">

</text>
<text  font-size="11" x="545" y="290">
nameSpace
</text>
<line x1="248" y1="312" x2="248" y2="409" stroke="black" stroke-width="1" style="stroke-dasharray:0;" marker-start="url(#decorator_0)" marker-end="url(#decorator_0)" />
<line x1="248" y1="409" x2="379" y2="409" stroke="black" stroke-width="1" style="stroke-dasharray:0;" marker-start="url(#decorator_0)" marker-end="url(#decorator_0)" />
<line x1="379" y1="409" x2="420" y2="409" stroke="black" stroke-width="1" style="stroke-dasharray:0;" marker-start="url(#decorator_0)" marker-end="url(#decorator_5)" />
</svg>
