<?xml version="1.0" encoding="iso-8859-1"?>
<!DOCTYPE svg PUBLIC "-//W3C//DTD SVG 20000303 Stylable//EN" "http://www.w3.org/2000/svg10-20000303-stylable">
<svg width="424" height="56" viewBox="94 78 424 56">
<marker id="decorator_0"/>
<marker id="decorator_1" viewBox="-20 -10 20 20"
                   markerUnits="userSpaceOnUse" refX="0" refY="0"
                   markerWidth="10" markerHeight="10" orient="auto"
                   style="fill:none;stroke:black;stroke-width:2">
<path d="M-20,-10 L0,0 -20,10"/>
</marker>
<marker id="decorator_5" viewBox="-20 -10 20 20"
                   markerUnits="userSpaceOnUse" refX="0" refY="0"
                   markerWidth="10" markerHeight="10" orient="auto"
                   style="fill:white;stroke:black;stroke-width:2">
<path d="M-20,-10 L0,0 -20,10 z"/>
</marker>
<polyline points="350,104.5 327.0,85 281,85 281,124 327.0,124 350,104.5" fill ="#DBD5D5" stroke="black" stroke-width="1"/>
<text x="298" y="112">
A2B
</text>
<rect x="99" y="83" width="100" height="46" fill ="#DBD5D5" stroke="black" stroke-width="1"/>
<rect x="99" y="83" width="100" height="16" fill ="#DBD5D5" stroke="black" stroke-width="1"/>
<text x="104" y="95">
X
</text>
<rect x="99" y="98" width="100" height="16" fill ="#DBD5D5" stroke="black" stroke-width="1"/>
<rect x="99" y="113" width="100" height="16" fill ="#DBD5D5" stroke="black" stroke-width="1"/>
<rect x="413" y="83" width="100" height="46" fill ="#DBD5D5" stroke="black" stroke-width="1"/>
<rect x="413" y="83" width="100" height="16" fill ="#DBD5D5" stroke="black" stroke-width="1"/>
<text x="418" y="95">
Y
</text>
<rect x="413" y="98" width="100" height="16" fill ="#DBD5D5" stroke="black" stroke-width="1"/>
<rect x="413" y="113" width="100" height="16" fill ="#DBD5D5" stroke="black" stroke-width="1"/>
<line x1="351" y1="105" x2="413" y2="105" stroke="black" stroke-width="1" style="stroke-dasharray:15 5;" marker-start="url(#decorator_0)" marker-end="url(#decorator_1)" />
<text x="379" y="133">
range
</text>
<line x1="281" y1="105" x2="199" y2="105" stroke="black" stroke-width="1" style="stroke-dasharray:15 5;" marker-start="url(#decorator_0)" marker-end="url(#decorator_1)" />
<text x="206" y="134">
domain
</text>
</svg>
