<?xml version="1.0" encoding="iso-8859-1"?>
<!DOCTYPE svg PUBLIC "-//W3C//DTD SVG 20000303 Stylable//EN" "http://www.w3.org/2000/svg10-20000303-stylable">
<svg width="494" height="233" viewBox="54 -5 494 233">
<marker id="decorator_0"/>
<marker id="decorator_1" viewBox="-20 -10 20 20"
                   markerUnits="userSpaceOnUse" refX="0" refY="0"
                   markerWidth="10" markerHeight="10" orient="auto"
                   style="fill:none;stroke:black;stroke-width:2">
<path d="M-20,-10 L0,0 -20,10"/>
</marker>
<marker id="decorator_5" viewBox="-20 -10 20 20"
                   markerUnits="userSpaceOnUse" refX="0" refY="0"
                   markerWidth="10" markerHeight="10" orient="auto"
                   style="fill:white;stroke:black;stroke-width:2">
<path d="M-20,-10 L0,0 -20,10 z"/>
</marker>
<polyline points="377,20.5 331.33334,1 240,1 240,40 331.33334,40 377,20.5" fill ="#DBD5D5" stroke="black" stroke-width="1"/>
<text  font-size="11"  x="274" y="28">
Package2Prog
</text>
<polyline points="362,104.5 324.33334,85 249,85 249,124 324.33334,124 362,104.5" fill ="#DBD5D5" stroke="black" stroke-width="1"/>
<text  font-size="11"  x="277" y="112">
Class2Class
</text>
<rect x="414" y="0" width="100" height="46" fill ="#DBD5D5" stroke="black" stroke-width="1"/>
<rect x="414" y="0" width="100" height="16" fill ="#DBD5D5" stroke="black" stroke-width="1"/>
<text  font-size="11"  x="419" y="12">
Program
</text>
<rect x="414" y="15" width="100" height="16" fill ="#DBD5D5" stroke="black" stroke-width="1"/>
<rect x="414" y="30" width="100" height="16" fill ="#DBD5D5" stroke="black" stroke-width="1"/>
<rect x="420" y="169" width="100" height="46" fill ="#DBD5D5" stroke="black" stroke-width="1"/>
<rect x="420" y="169" width="100" height="16" fill ="#DBD5D5" stroke="black" stroke-width="1"/>
<text  font-size="11"  x="425" y="181">
Field
</text>
<rect x="420" y="184" width="100" height="16" fill ="#DBD5D5" stroke="black" stroke-width="1"/>
<rect x="420" y="199" width="100" height="16" fill ="#DBD5D5" stroke="black" stroke-width="1"/>
<rect x="89" y="1" width="100" height="46" fill ="#DBD5D5" stroke="black" stroke-width="1"/>
<rect x="89" y="1" width="100" height="16" fill ="#DBD5D5" stroke="black" stroke-width="1"/>
<text  font-size="11"  x="94" y="13">
Package
</text>
<rect x="89" y="16" width="100" height="16" fill ="#DBD5D5" stroke="black" stroke-width="1"/>
<rect x="89" y="31" width="100" height="16" fill ="#DBD5D5" stroke="black" stroke-width="1"/>
<rect x="415" y="79" width="100" height="46" fill ="#DBD5D5" stroke="black" stroke-width="1"/>
<rect x="415" y="79" width="100" height="16" fill ="#DBD5D5" stroke="black" stroke-width="1"/>
<text  font-size="11"  x="420" y="91">
JavaClass
</text>
<rect x="415" y="94" width="100" height="16" fill ="#DBD5D5" stroke="black" stroke-width="1"/>
<rect x="415" y="109" width="100" height="16" fill ="#DBD5D5" stroke="black" stroke-width="1"/>
<polyline points="336,196.5 313.0,177 267,177 267,216 313.0,216 336,196.5" fill ="#DBD5D5" stroke="black" stroke-width="1"/>
<text  font-size="11"  x="284" y="204">
Att2Field
</text>
<rect x="90" y="177" width="100" height="46" fill ="#DBD5D5" stroke="black" stroke-width="1"/>
<rect x="90" y="177" width="100" height="16" fill ="#DBD5D5" stroke="black" stroke-width="1"/>
<text  font-size="11"  x="95" y="189">
Attribute
</text>
<rect x="90" y="192" width="100" height="16" fill ="#DBD5D5" stroke="black" stroke-width="1"/>
<rect x="90" y="207" width="100" height="16" fill ="#DBD5D5" stroke="black" stroke-width="1"/>
<rect x="89" y="83" width="100" height="46" fill ="#DBD5D5" stroke="black" stroke-width="1"/>
<rect x="89" y="83" width="100" height="16" fill ="#DBD5D5" stroke="black" stroke-width="1"/>
<text  font-size="11"  x="94" y="95">
Class
</text>
<rect x="89" y="98" width="100" height="16" fill ="#DBD5D5" stroke="black" stroke-width="1"/>
<rect x="89" y="113" width="100" height="16" fill ="#DBD5D5" stroke="black" stroke-width="1"/>
<line x1="464" y1="46" x2="464" y2="79" stroke="black" stroke-width="1" style="stroke-dasharray:0;" marker-start="url(#decorator_0)" marker-end="url(#decorator_1)" />
<text  font-size="11"  x="446" y="78">
*
</text>
<text  font-size="11"  x="483" y="76">
classes
</text>
<line x1="140" y1="129" x2="140" y2="177" stroke="black" stroke-width="1" style="stroke-dasharray:0;" marker-start="url(#decorator_0)" marker-end="url(#decorator_1)" />
<text  font-size="11"  x="119" y="177">
*
</text>
<text  font-size="11"  x="152" y="169">
attributes
</text>
<line x1="378" y1="21" x2="414" y2="21" stroke="black" stroke-width="1" style="stroke-dasharray:15 5;" marker-start="url(#decorator_0)" marker-end="url(#decorator_1)" />
<text  font-size="11"  x="380" y="18">
range
</text>
<line x1="470" y1="125" x2="470" y2="169" stroke="black" stroke-width="1" style="stroke-dasharray:0;" marker-start="url(#decorator_0)" marker-end="url(#decorator_1)" />
<text  font-size="11"  x="444" y="163">
*
</text>
<text  font-size="11"  x="484" y="160">
attributes
</text>
<line x1="240" y1="21" x2="189" y2="21" stroke="black" stroke-width="1" style="stroke-dasharray:15 5;" marker-start="url(#decorator_0)" marker-end="url(#decorator_1)" />
<text  font-size="11"  x="197" y="19">
domain
</text>
<line x1="267" y1="197" x2="190" y2="197" stroke="black" stroke-width="1" style="stroke-dasharray:15 5;" marker-start="url(#decorator_0)" marker-end="url(#decorator_1)" />
<text  font-size="11"  x="202" y="187">
domain
</text>
<line x1="139" y1="47" x2="139" y2="83" stroke="black" stroke-width="1" style="stroke-dasharray:0;" marker-start="url(#decorator_0)" marker-end="url(#decorator_1)" />
<text  font-size="11"  x="118" y="81">
*
</text>
<text  font-size="11"  x="152" y="80">
classes
</text>
<line x1="337" y1="196" x2="420" y2="196" stroke="black" stroke-width="1" style="stroke-dasharray:15 5;" marker-start="url(#decorator_0)" marker-end="url(#decorator_1)" />
<text  font-size="11"  x="380" y="188">
range
</text>
<line x1="520" y1="187" x2="543" y2="187" stroke="black" stroke-width="1" style="stroke-dasharray:0;" marker-start="url(#decorator_0)" marker-end="url(#decorator_0)" />
<line x1="543" y1="187" x2="543" y2="92" stroke="black" stroke-width="1" style="stroke-dasharray:0;" marker-start="url(#decorator_0)" marker-end="url(#decorator_0)" />
<line x1="543" y1="92" x2="515" y2="92" stroke="black" stroke-width="1" style="stroke-dasharray:0;" marker-start="url(#decorator_0)" marker-end="url(#decorator_1)" />
<text  font-size="11"  x="520" y="111">

</text>
<text  font-size="11"  x="525" y="82">
type
</text>
<line x1="363" y1="97" x2="415" y2="97" stroke="black" stroke-width="1" style="stroke-dasharray:15 5;" marker-start="url(#decorator_0)" marker-end="url(#decorator_1)" />
<text  font-size="11"  x="376" y="90">
range
</text>
<line x1="90" y1="201" x2="59" y2="201" stroke="black" stroke-width="1" style="stroke-dasharray:0;" marker-start="url(#decorator_0)" marker-end="url(#decorator_0)" />
<line x1="59" y1="201" x2="59" y2="99" stroke="black" stroke-width="1" style="stroke-dasharray:0;" marker-start="url(#decorator_0)" marker-end="url(#decorator_0)" />
<line x1="59" y1="99" x2="89" y2="99" stroke="black" stroke-width="1" style="stroke-dasharray:0;" marker-start="url(#decorator_0)" marker-end="url(#decorator_1)" />
<text  font-size="11"  x="94" y="118">

</text>
<text  font-size="11"  x="56" y="91">
type
</text>
<line x1="249" y1="99" x2="189" y2="99" stroke="black" stroke-width="1" style="stroke-dasharray:15 5;" marker-start="url(#decorator_0)" marker-end="url(#decorator_1)" />
<text  font-size="11"  x="197" y="91">
domain
</text>
</svg>
