<?xml version="1.0" encoding="iso-8859-1"?>
<!DOCTYPE svg PUBLIC "-//W3C//DTD SVG 20000303 Stylable//EN" "http://www.w3.org/2000/svg10-20000303-stylable">
<svg width="537" height="263" viewBox="79 4 537 263">
<marker id="decorator_0"/>
<marker id="decorator_1" viewBox="-20 -10 20 20"
                   markerUnits="userSpaceOnUse" refX="0" refY="0"
                   markerWidth="10" markerHeight="10" orient="auto"
                   style="fill:none;stroke:black;stroke-width:2">
<path d="M-20,-10 L0,0 -20,10"/>
</marker>
<marker id="decorator_5" viewBox="-20 -10 20 20"
                   markerUnits="userSpaceOnUse" refX="0" refY="0"
                   markerWidth="10" markerHeight="10" orient="auto"
                   style="fill:white;stroke:black;stroke-width:2">
<path d="M-20,-10 L0,0 -20,10 z"/>
</marker>
<rect x="510" y="9" width="101" height="59" fill ="#DBD5D5" stroke="black" stroke-width="1"/>
<rect x="510" y="9" width="101" height="29" fill ="#DBD5D5" stroke="black" stroke-width="1"/>
<text  font-size="11" x="515" y="21" style="font-style:italic">
Element
</text>
<text  font-size="11" x="515" y="34">
(from Root::XCore)
</text>
<rect x="510" y="37" width="101" height="16" fill ="#DBD5D5" stroke="black" stroke-width="1"/>
<rect x="510" y="52" width="101" height="16" fill ="#DBD5D5" stroke="black" stroke-width="1"/>
<rect x="115" y="216" width="100" height="46" fill ="#DBD5D5" stroke="black" stroke-width="1"/>
<rect x="115" y="216" width="100" height="16" fill ="#DBD5D5" stroke="black" stroke-width="1"/>
<text  font-size="11" x="120" y="228">
StateChange
</text>
<rect x="115" y="231" width="100" height="16" fill ="#DBD5D5" stroke="black" stroke-width="1"/>
<rect x="115" y="246" width="100" height="16" fill ="#DBD5D5" stroke="black" stroke-width="1"/>
<rect x="317" y="16" width="100" height="46" fill ="#DBD5D5" stroke="black" stroke-width="1"/>
<rect x="317" y="16" width="100" height="16" fill ="#DBD5D5" stroke="black" stroke-width="1"/>
<text  font-size="11" x="322" y="28">
MessageArg
</text>
<rect x="317" y="31" width="100" height="16" fill ="#DBD5D5" stroke="black" stroke-width="1"/>
<text  font-size="11" x="354" y="43">
String
</text>
<text  font-size="11" x="322" y="43">
name
</text>
<rect x="317" y="46" width="100" height="16" fill ="#DBD5D5" stroke="black" stroke-width="1"/>
<rect x="110" y="109" width="116" height="46" fill ="#DBD5D5" stroke="black" stroke-width="1"/>
<rect x="110" y="109" width="116" height="16" fill ="#DBD5D5" stroke="black" stroke-width="1"/>
<text  font-size="11" x="115" y="121">
StateMachineInstance
</text>
<rect x="110" y="124" width="116" height="16" fill ="#DBD5D5" stroke="black" stroke-width="1"/>
<text  font-size="11" x="146" y="136">
String
</text>
<text  font-size="11" x="115" y="136">
state
</text>
<rect x="110" y="139" width="116" height="16" fill ="#DBD5D5" stroke="black" stroke-width="1"/>
<rect x="122" y="19" width="100" height="46" fill ="#DBD5D5" stroke="black" stroke-width="1"/>
<rect x="122" y="19" width="100" height="16" fill ="#DBD5D5" stroke="black" stroke-width="1"/>
<text  font-size="11" x="127" y="31">
Message
</text>
<rect x="122" y="34" width="100" height="16" fill ="#DBD5D5" stroke="black" stroke-width="1"/>
<text  font-size="11" x="159" y="46">
String
</text>
<text  font-size="11" x="127" y="46">
name
</text>
<rect x="122" y="49" width="100" height="16" fill ="#DBD5D5" stroke="black" stroke-width="1"/>
<line x1="417" y1="39" x2="510" y2="39" stroke="black" stroke-width="1" style="stroke-dasharray:0;" marker-start="url(#decorator_0)" marker-end="url(#decorator_1)" />
<text  font-size="11" x="515" y="58">

</text>
<text  font-size="11" x="475" y="62">
value
</text>
<line x1="165" y1="216" x2="165" y2="155" stroke="black" stroke-width="1" style="stroke-dasharray:0;" marker-start="url(#decorator_0)" marker-end="url(#decorator_1)" />
<text  font-size="11" x="170" y="174">

</text>
<text  font-size="11" x="181" y="176">
after
</text>
<line x1="222" y1="41" x2="317" y2="41" stroke="black" stroke-width="1" style="stroke-dasharray:0;" marker-start="url(#decorator_0)" marker-end="url(#decorator_1)" />
<text  font-size="11" x="240" y="35">
&lt;&lt;ordered&gt;&gt;
</text>
<text  font-size="11" x="283" y="64">
args
</text>
<line x1="115" y1="243" x2="84" y2="243" stroke="black" stroke-width="1" style="stroke-dasharray:0;" marker-start="url(#decorator_0)" marker-end="url(#decorator_0)" />
<line x1="84" y1="243" x2="84" y2="126" stroke="black" stroke-width="1" style="stroke-dasharray:0;" marker-start="url(#decorator_0)" marker-end="url(#decorator_0)" />
<line x1="84" y1="126" x2="110" y2="126" stroke="black" stroke-width="1" style="stroke-dasharray:0;" marker-start="url(#decorator_0)" marker-end="url(#decorator_1)" />
<text  font-size="11" x="115" y="145">

</text>
<text  font-size="11" x="65" y="119">
before
</text>
<line x1="172" y1="109" x2="172" y2="65" stroke="black" stroke-width="1" style="stroke-dasharray:0;" marker-start="url(#decorator_0)" marker-end="url(#decorator_1)" />
<text  font-size="11" x="177" y="84">
&lt;&lt;ordered&gt;&gt;
</text>
<text  font-size="11" x="111" y="85">
messages
</text>
</svg>
