<?xml version="1.0" encoding="iso-8859-1"?>
<!DOCTYPE svg PUBLIC "-//W3C//DTD SVG 20000303 Stylable//EN" "http://www.w3.org/2000/svg10-20000303-stylable">
<svg width="564" height="240" viewBox="3 41 564 240">
<marker id="decorator_0"/>
<marker id="decorator_1" viewBox="-20 -10 20 20"
                   markerUnits="userSpaceOnUse" refX="0" refY="0"
                   markerWidth="10" markerHeight="10" orient="auto"
                   style="fill:none;stroke:black;stroke-width:2">
<path d="M-20,-10 L0,0 -20,10"/>
</marker>
<marker id="decorator_5" viewBox="-20 -10 20 20"
                   markerUnits="userSpaceOnUse" refX="0" refY="0"
                   markerWidth="10" markerHeight="10" orient="auto"
                   style="fill:white;stroke:black;stroke-width:2">
<path d="M-20,-10 L0,0 -20,10 z"/>
</marker>
<rect x="200" y="150" width="100" height="31" fill ="#DBD5D5" stroke="black" stroke-width="1"/>
<rect x="200" y="150" width="100" height="16" fill ="#DBD5D5" stroke="black" stroke-width="1"/>
<text  font-size="11" x="205" y="162" style="font-style:italic">
Member
</text>
<rect x="200" y="165" width="100" height="16" fill ="#DBD5D5" stroke="black" stroke-width="1"/>
<text  font-size="11" x="237" y="177">
String
</text>
<text  font-size="11" x="205" y="177">
name
</text>
<rect x="462" y="229" width="100" height="47" fill ="#DBD5D5" stroke="black" stroke-width="1"/>
<rect x="462" y="229" width="100" height="16" fill ="#DBD5D5" stroke="black" stroke-width="1"/>
<text  font-size="11" x="467" y="241">
Arg
</text>
<rect x="462" y="244" width="100" height="32" fill ="#DBD5D5" stroke="black" stroke-width="1"/>
<text  font-size="11" x="499" y="256">
String
</text>
<text  font-size="11" x="467" y="256">
type
</text>
<text  font-size="11" x="499" y="272">
String
</text>
<text  font-size="11" x="467" y="272">
name
</text>
<rect x="144" y="238" width="100" height="31" fill ="#DBD5D5" stroke="black" stroke-width="1"/>
<rect x="144" y="238" width="100" height="16" fill ="#DBD5D5" stroke="black" stroke-width="1"/>
<text  font-size="11" x="149" y="250">
Field
</text>
<rect x="144" y="253" width="100" height="16" fill ="#DBD5D5" stroke="black" stroke-width="1"/>
<text  font-size="11" x="177" y="265">
String
</text>
<text  font-size="11" x="149" y="265">
type
</text>
<rect x="8" y="48" width="100" height="31" fill ="#DBD5D5" stroke="black" stroke-width="1"/>
<rect x="8" y="48" width="100" height="16" fill ="#DBD5D5" stroke="black" stroke-width="1"/>
<text  font-size="11" x="13" y="60">
Program
</text>
<rect x="8" y="63" width="100" height="16" fill ="#DBD5D5" stroke="black" stroke-width="1"/>
<rect x="191" y="46" width="100" height="31" fill ="#DBD5D5" stroke="black" stroke-width="1"/>
<rect x="191" y="46" width="100" height="16" fill ="#DBD5D5" stroke="black" stroke-width="1"/>
<text  font-size="11" x="196" y="58">
Class
</text>
<rect x="191" y="61" width="100" height="16" fill ="#DBD5D5" stroke="black" stroke-width="1"/>
<text  font-size="11" x="228" y="73">
String
</text>
<text  font-size="11" x="196" y="73">
name
</text>
<rect x="265" y="228" width="100" height="47" fill ="#DBD5D5" stroke="black" stroke-width="1"/>
<rect x="265" y="228" width="100" height="16" fill ="#DBD5D5" stroke="black" stroke-width="1"/>
<text  font-size="11" x="270" y="240">
Method
</text>
<rect x="265" y="243" width="100" height="32" fill ="#DBD5D5" stroke="black" stroke-width="1"/>
<text  font-size="11" x="300" y="255">
String
</text>
<text  font-size="11" x="270" y="255">
body
</text>
<text  font-size="11" x="300" y="271">
String
</text>
<text  font-size="11" x="270" y="271">
type
</text>
<line x1="216" y1="238" x2="216" y2="224" stroke="black" stroke-width="1" style="stroke-dasharray:0;" marker-start="url(#decorator_0)" marker-end="url(#decorator_0)" />
<line x1="216" y1="224" x2="216" y2="181" stroke="black" stroke-width="1" style="stroke-dasharray:0;" marker-start="url(#decorator_0)" marker-end="url(#decorator_5)" />
<line x1="108" y1="63" x2="191" y2="63" stroke="black" stroke-width="1" style="stroke-dasharray:0;" marker-start="url(#decorator_0)" marker-end="url(#decorator_1)" />
<text  font-size="11" x="168" y="59">
*
</text>
<text  font-size="11" x="152" y="87">
classes
</text>
<line x1="241" y1="77" x2="241" y2="150" stroke="black" stroke-width="1" style="stroke-dasharray:0;" marker-start="url(#decorator_0)" marker-end="url(#decorator_1)" />
<text  font-size="11" x="224" y="145">
*
</text>
<text  font-size="11" x="252" y="145">
members
</text>
<line x1="279" y1="228" x2="279" y2="181" stroke="black" stroke-width="1" style="stroke-dasharray:0;" marker-start="url(#decorator_0)" marker-end="url(#decorator_5)" />
<line x1="365" y1="253" x2="462" y2="253" stroke="black" stroke-width="1" style="stroke-dasharray:0;" marker-start="url(#decorator_0)" marker-end="url(#decorator_1)" />
<text  font-size="11" x="386" y="272">
&lt;&lt;ordered&gt;&gt;
</text>
<text  font-size="11" x="440" y="248">
args
</text>
</svg>
